<?xml version="1.0" standalone="no"?>
<!DOCTYPE svg PUBLIC "-//W3C//DTD SVG 20010904//EN"
 "http://www.w3.org/TR/2001/REC-SVG-20010904/DTD/svg10.dtd">
<svg version="1.0" xmlns="http://www.w3.org/2000/svg"
 width="512.000000pt" height="512.000000pt" viewBox="0 0 512.000000 512.000000"
 preserveAspectRatio="xMidYMid meet">

<g transform="translate(0.000000,512.000000) scale(0.100000,-0.100000)"
fill="#000000" stroke="none">
<path d="M1040 2560 l0 -2220 180 0 180 0 0 384 c0 211 4 405 9 432 26 135 99
247 209 321 202 136 481 100 638 -80 50 -57 101 -169 114 -247 5 -36 10 -231
10 -437 l0 -373 175 0 175 0 0 368 c0 403 7 478 49 567 122 260 416 359 676
228 112 -57 216 -199 244 -331 7 -33 11 -197 11 -442 l0 -390 185 0 185 0 0
2220 0 2220 -1520 0 -1520 0 0 -2220z m1673 1823 c163 -47 300 -177 359 -338
26 -73 35 -217 18 -298 -36 -177 -181 -338 -357 -399 -98 -33 -260 -32 -353 3
-224 85 -360 280 -360 514 1 274 197 497 475 539 47 7 161 -4 218 -21z m-681
-1393 c80 -24 171 -83 222 -141 52 -59 103 -170 116 -249 5 -36 10 -199 10
-362 l0 -298 -490 0 -490 0 0 308 c0 339 6 394 52 492 36 76 130 175 198 210
121 63 262 77 382 40z m1313 6 c174 -46 317 -197 354 -374 7 -32 11 -177 11
-367 l0 -315 -490 0 -490 0 0 293 c0 342 7 406 55 503 62 126 152 206 285 251
76 26 197 30 275 9z"/>
<path d="M2505 4101 c-73 -19 -142 -77 -169 -143 -39 -91 -5 -226 69 -283 166
-126 395 -17 395 187 0 32 -6 73 -14 92 -19 46 -72 104 -116 126 -43 22 -122
32 -165 21z"/>
<path d="M1793 2685 c-23 -14 -52 -42 -65 -63 -21 -34 -23 -50 -26 -209 l-4
-173 192 0 192 0 -4 168 c-3 156 -5 170 -28 210 -51 90 -168 120 -257 67z"/>
<path d="M3145 2698 c-32 -18 -76 -61 -93 -93 -13 -23 -17 -67 -20 -197 l-4
-168 192 0 191 0 -3 173 c-3 170 -4 174 -31 215 -35 54 -90 82 -159 82 -29 0
-62 -6 -73 -12z"/>
<path d="M0 3245 l0 -185 370 0 370 0 0 185 0 185 -370 0 -370 0 0 -185z"/>
<path d="M4380 3245 l0 -185 370 0 370 0 0 185 0 185 -370 0 -370 0 0 -185z"/>
<path d="M0 1550 l0 -1210 370 0 370 0 -2 1208 -3 1207 -367 3 -368 2 0 -1210z"/>
<path d="M4387 2753 c-4 -3 -7 -548 -7 -1210 l0 -1203 370 0 370 0 0 1210 0
1210 -363 0 c-200 0 -367 -3 -370 -7z"/>
<path d="M1789 1231 c-84 -53 -84 -50 -87 -498 l-3 -393 191 0 190 0 0 373 c0
229 -4 387 -11 410 -13 47 -63 106 -106 123 -55 24 -123 18 -174 -15z"/>
<path d="M3150 1249 c-32 -13 -77 -56 -98 -94 -15 -26 -17 -79 -20 -422 l-3
-393 191 0 191 0 -3 398 c-3 396 -3 397 -26 435 -46 73 -152 108 -232 76z"/>
</g>
</svg>
