<?xml version="1.0" standalone="no"?>
<!DOCTYPE svg PUBLIC "-//W3C//DTD SVG 20010904//EN"
 "http://www.w3.org/TR/2001/REC-SVG-20010904/DTD/svg10.dtd">
<svg version="1.0" xmlns="http://www.w3.org/2000/svg"
 width="512.000000pt" height="512.000000pt" viewBox="0 0 512.000000 512.000000"
 preserveAspectRatio="xMidYMid meet">

<g transform="translate(0.000000,512.000000) scale(0.100000,-0.100000)"
fill="#000000" stroke="none">
<path d="M236 4803 c-92 -28 -168 -94 -210 -183 -21 -45 -21 -47 -24 -1277
l-2 -1233 2560 0 2560 0 -2 1233 -3 1232 -23 45 c-48 98 -114 155 -212 184
-48 14 -280 16 -2324 15 -2001 0 -2277 -2 -2320 -16z m1594 -972 c50 -27 84
-96 75 -153 -6 -39 -23 -59 -173 -210 l-166 -168 166 -167 c149 -151 167 -172
173 -211 18 -111 -95 -201 -202 -162 -32 12 -457 431 -479 472 -18 35 -18 101
0 136 16 30 440 454 471 471 31 16 97 13 135 -8z m1010 -3 c41 -29 70 -82 70
-130 0 -55 -417 -887 -460 -918 -97 -69 -226 -10 -238 108 -4 45 6 67 203 462
114 228 216 427 226 441 42 59 140 77 199 37z m583 11 c31 -16 455 -439 473
-471 8 -15 14 -45 14 -68 0 -23 -6 -53 -14 -68 -22 -41 -447 -460 -479 -472
-107 -39 -220 51 -202 162 6 39 24 60 173 211 l166 167 -166 168 c-150 151
-167 171 -173 210 -9 57 25 128 75 154 39 20 100 24 133 7z"/>
<path d="M2 1633 c3 -168 4 -181 29 -234 51 -108 141 -173 266 -190 41 -6 954
-8 2313 -7 l2245 3 57 23 c73 29 141 96 176 170 26 54 27 66 30 235 l4 177
-2562 0 -2562 0 4 -177z"/>
<path d="M1725 750 l-49 -150 -179 0 c-191 0 -209 -4 -256 -54 -37 -39 -41
-128 -9 -176 51 -75 -52 -70 1328 -70 1156 0 1237 1 1270 18 103 51 108 201 8
262 -30 18 -51 20 -213 20 l-181 0 -49 150 -49 150 -786 0 -786 0 -49 -150z"/>
</g>
</svg>
