<svg version="1.1" id="Layer_1" xmlns="http://www.w3.org/2000/svg" xmlns:xlink="http://www.w3.org/1999/xlink" x="0px" y="0px"
	 width="100%" viewBox="0 0 768 682" enable-background="new 0 0 768 682" xml:space="preserve">
<path fill="#FFFFFF" opacity="1.000000" stroke="none" 
	d="
M457.000000,683.000000 
	C304.666656,683.000000 152.833328,683.000000 1.000000,683.000000 
	C1.000000,455.666656 1.000000,228.333328 1.000000,1.000000 
	C257.000000,1.000000 513.000000,1.000000 769.000000,1.000000 
	C769.000000,228.333328 769.000000,455.666656 769.000000,683.000000 
	C665.166687,683.000000 561.333313,683.000000 457.000000,683.000000 
M673.732605,445.797394 
	C673.495483,443.476349 673.325073,441.146240 673.010315,438.835754 
	C671.164734,425.286041 666.770874,412.848969 656.253357,403.496521 
	C638.424072,387.642334 603.589539,385.137939 582.460815,398.119354 
	C565.651794,408.446716 558.653931,424.790436 558.271057,443.331757 
	C557.473083,481.977386 557.466736,520.661987 558.250061,559.307983 
	C558.629761,578.041565 565.659058,594.594482 582.718811,604.881165 
	C595.204712,612.409912 609.102356,613.913879 623.292542,612.564514 
	C651.913757,609.842834 669.977661,593.762573 672.479309,565.181152 
	C674.666382,540.192749 673.601929,514.915649 673.730469,489.764893 
	C673.736145,488.655151 671.330444,486.579254 670.026062,486.561462 
	C653.695740,486.338959 637.361389,486.430389 621.028198,486.395294 
	C618.408630,486.389648 617.025391,487.245209 617.051758,490.156311 
	C617.145264,500.488770 616.968628,510.825775 617.245544,521.151672 
	C617.278809,522.393127 619.271118,523.970642 620.707214,524.666687 
	C621.923340,525.256104 623.648804,524.781433 625.148621,524.801086 
	C635.452148,524.935974 634.169739,523.406738 634.085083,533.847107 
	C634.008301,543.322632 633.910645,552.831116 633.053284,562.255066 
	C632.513550,568.187317 628.551697,572.134094 622.590759,573.663940 
	C609.585144,577.001648 600.862549,570.856873 599.669800,557.493469 
	C599.492371,555.505737 599.446472,553.500671 599.445679,551.503662 
	C599.432495,518.170410 599.413025,484.837097 599.470642,451.503937 
	C599.476624,448.019775 599.621338,444.469757 600.290283,441.066010 
	C601.892639,432.913025 606.918091,428.757751 615.219055,428.208221 
	C626.285095,427.475677 632.839905,432.973816 633.844177,444.337738 
	C634.326782,449.799591 634.187866,455.329865 634.085754,460.824615 
	C634.028259,463.920074 634.893738,465.397614 638.298645,465.350922 
	C648.796631,465.206848 659.298401,465.241394 669.797546,465.336182 
	C672.771667,465.363007 674.045898,464.274323 673.940857,461.236511 
	C673.773926,456.408356 673.829285,451.572510 673.732605,445.797394 
M447.505066,392.683319 
	C444.005249,392.683563 440.489349,392.894104 437.009918,392.627838 
	C433.136566,392.331451 431.419006,393.567413 430.844727,397.689575 
	C428.983398,411.049591 426.669159,424.346375 424.540619,437.669312 
	C415.631897,493.430939 406.767700,549.199768 397.738647,604.941895 
	C397.071289,609.061768 398.008484,610.287170 402.150970,610.186035 
	C411.644623,609.954163 421.150879,609.974426 430.645569,610.184448 
	C434.150909,610.261902 435.722260,609.292358 436.110931,605.606567 
	C436.843964,598.654968 438.204193,591.771301 439.024658,584.826355 
	C439.419373,581.485352 440.854828,580.305054 444.187988,580.356506 
	C454.184906,580.510803 464.187073,580.505310 474.184204,580.357544 
	C477.437866,580.309448 478.999878,581.283508 479.398621,584.718689 
	C480.185547,591.498108 481.540009,598.211609 482.333130,604.990540 
	C482.780487,608.814270 484.169189,610.350708 488.297119,610.216370 
	C498.119354,609.896851 507.959045,610.113708 517.791687,610.112183 
	C524.991699,610.111145 525.054871,610.099854 523.920715,603.014160 
	C512.942444,534.425537 501.915527,465.844696 491.019257,397.243103 
	C490.449036,393.653229 489.003479,392.570679 485.499451,392.619049 
	C473.169342,392.789246 460.835449,392.683990 447.505066,392.683319 
M214.614792,511.408325 
	C214.614655,503.909851 214.381149,496.401398 214.701981,488.916687 
	C214.894058,484.435760 213.700790,482.782043 208.897629,482.909790 
	C196.242249,483.246460 183.569992,482.898315 170.908722,483.095612 
	C167.113785,483.154724 166.053436,481.817413 166.095245,478.175201 
	C166.257889,464.012970 166.267471,449.846436 166.091156,435.684540 
	C166.044510,431.937714 167.289505,430.821167 170.987305,430.856964 
	C187.982635,431.021515 204.982147,430.798157 221.976196,431.019135 
	C226.428589,431.077026 228.233627,430.026489 228.033524,425.200012 
	C227.661118,416.217072 227.704422,407.199860 228.021103,398.212646 
	C228.177368,393.777283 226.735504,392.536957 222.355621,392.561157 
	C191.695435,392.730530 161.033142,392.757568 130.373535,392.542389 
	C125.430595,392.507690 124.252167,394.107422 124.276604,398.813873 
	C124.454781,433.140076 124.372581,467.467621 124.372498,501.794739 
	C124.372414,536.121887 124.430084,570.449219 124.295204,604.775818 
	C124.279213,608.846191 125.356812,610.325134 129.619690,610.207642 
	C139.943314,609.923157 150.286362,609.905457 160.608551,610.214966 
	C165.010284,610.346985 166.294601,609.054443 166.259567,604.615845 
	C166.058334,579.122070 166.161148,553.625854 166.161957,528.130493 
	C166.162186,521.204895 166.164001,521.201233 172.838821,521.199402 
	C183.836823,521.196289 194.835098,521.245728 205.832764,521.184204 
	C215.517700,521.130005 214.553436,522.531982 214.614792,511.408325 
M264.603729,552.499817 
	C264.603973,570.156738 264.660736,587.814087 264.554108,605.470337 
	C264.534088,608.787109 265.393768,610.191467 269.039520,610.177612 
	C300.521759,610.057373 332.004913,610.047791 363.487000,610.185852 
	C367.431488,610.203125 368.236053,608.631226 368.172882,605.141541 
	C368.003998,595.816406 367.916229,586.479980 368.204895,577.160706 
	C368.338257,572.854614 366.719421,571.821106 362.701965,571.865112 
	C346.213013,572.045715 329.720917,571.941101 313.229980,571.940063 
	C306.295349,571.939636 306.288361,571.938049 306.288116,564.775574 
	C306.286163,509.472656 306.235535,454.169586 306.381012,398.867035 
	C306.393250,394.220367 305.373077,392.382416 300.358032,392.576996 
	C290.544861,392.957672 280.694763,392.975342 270.883362,392.572388 
	C265.703888,392.359680 264.481384,394.102783 264.498352,399.083893 
	C264.671539,449.888702 264.603912,500.694336 264.603729,552.499817 
M277.278442,173.499969 
	C277.278687,210.326630 277.327667,247.153442 277.209290,283.979736 
	C277.196411,287.992432 278.238800,289.664551 282.532501,289.562469 
	C292.858093,289.316986 303.197449,289.317810 313.523071,289.563385 
	C317.857758,289.666534 319.251282,288.307465 319.200439,283.870331 
	C318.975098,264.209839 319.103546,244.545273 319.103577,224.882187 
	C319.103668,176.224365 319.104156,127.566544 319.102631,78.908722 
	C319.102417,71.935753 319.097687,71.934937 311.924408,71.934395 
	C302.426147,71.933685 292.919220,72.174698 283.433197,71.834145 
	C278.618988,71.661316 277.149384,73.166298 277.179108,78.017754 
	C277.371979,109.510849 277.278473,141.005692 277.278442,173.499969 
M344.848724,255.500000 
	C344.848755,264.994568 345.001038,274.492767 344.774200,283.981934 
	C344.682983,287.795532 345.653717,289.281403 349.764648,289.173004 
	C360.251404,288.896515 370.753052,288.942810 381.242798,289.154907 
	C384.929779,289.229462 386.108612,288.139313 386.103088,284.364258 
	C386.002197,215.237183 386.002289,146.109863 386.096558,76.982735 
	C386.102081,72.911728 384.525940,71.844589 380.761353,71.912468 
	C370.936829,72.089607 361.106964,71.967934 351.279236,71.972786 
	C344.859680,71.975960 344.850708,71.981720 344.850403,78.600311 
	C344.847809,137.233536 344.848663,195.866776 344.848724,255.500000 
M452.500000,71.947937 
	C440.518188,71.948364 428.534607,72.065277 416.555664,71.879959 
	C412.845306,71.822556 411.590210,73.052406 411.666901,76.754486 
	C411.863312,86.236008 411.912903,95.729317 411.648926,105.207550 
	C411.534637,109.310783 413.079773,110.231422 416.897095,110.216805 
	C449.680115,110.091240 482.464142,110.079628 515.247009,110.224457 
	C519.517395,110.243324 521.186951,109.108215 521.033997,104.614166 
	C520.734131,95.804436 520.721313,86.969284 521.036133,78.160606 
	C521.204346,73.454643 519.844543,71.782631 514.905396,71.843048 
	C494.439545,72.093407 473.968903,71.947968 452.500000,71.947937 
M415.711670,161.920715 
	C412.481750,161.526932 411.821533,163.274277 411.852234,166.102188 
	C411.957214,175.763504 412.015076,185.429062 411.828217,195.087921 
	C411.755554,198.843582 413.199554,199.989197 416.819305,199.979324 
	C449.804718,199.889465 482.790619,199.879837 515.775940,199.989258 
	C519.634155,200.002045 521.134155,198.823212 521.035156,194.838699 
	C520.815735,186.014679 520.703125,177.170364 521.070984,168.356201 
	C521.280457,163.336960 519.741028,161.774796 514.623840,161.808258 
	C481.972778,162.021744 449.319641,161.917236 415.711670,161.920715 
z"/>
<path fill="#2F2F2F" opacity="1.000000" stroke="none" 
	d="
M673.761597,446.268646 
	C673.829285,451.572510 673.773926,456.408356 673.940857,461.236511 
	C674.045898,464.274323 672.771667,465.363007 669.797546,465.336182 
	C659.298401,465.241394 648.796631,465.206848 638.298645,465.350922 
	C634.893738,465.397614 634.028259,463.920074 634.085754,460.824615 
	C634.187866,455.329865 634.326782,449.799591 633.844177,444.337738 
	C632.839905,432.973816 626.285095,427.475677 615.219055,428.208221 
	C606.918091,428.757751 601.892639,432.913025 600.290283,441.066010 
	C599.621338,444.469757 599.476624,448.019775 599.470642,451.503937 
	C599.413025,484.837097 599.432495,518.170410 599.445679,551.503662 
	C599.446472,553.500671 599.492371,555.505737 599.669800,557.493469 
	C600.862549,570.856873 609.585144,577.001648 622.590759,573.663940 
	C628.551697,572.134094 632.513550,568.187317 633.053284,562.255066 
	C633.910645,552.831116 634.008301,543.322632 634.085083,533.847107 
	C634.169739,523.406738 635.452148,524.935974 625.148621,524.801086 
	C623.648804,524.781433 621.923340,525.256104 620.707214,524.666687 
	C619.271118,523.970642 617.278809,522.393127 617.245544,521.151672 
	C616.968628,510.825775 617.145264,500.488770 617.051758,490.156311 
	C617.025391,487.245209 618.408630,486.389648 621.028198,486.395294 
	C637.361389,486.430389 653.695740,486.338959 670.026062,486.561462 
	C671.330444,486.579254 673.736145,488.655151 673.730469,489.764893 
	C673.601929,514.915649 674.666382,540.192749 672.479309,565.181152 
	C669.977661,593.762573 651.913757,609.842834 623.292542,612.564514 
	C609.102356,613.913879 595.204712,612.409912 582.718811,604.881165 
	C565.659058,594.594482 558.629761,578.041565 558.250061,559.307983 
	C557.466736,520.661987 557.473083,481.977386 558.271057,443.331757 
	C558.653931,424.790436 565.651794,408.446716 582.460815,398.119354 
	C603.589539,385.137939 638.424072,387.642334 656.253357,403.496521 
	C666.770874,412.848969 671.164734,425.286041 673.010315,438.835754 
	C673.325073,441.146240 673.495483,443.476349 673.761597,446.268646 
z"/>
<path fill="#2F2F2F" opacity="1.000000" stroke="none" 
	d="
M448.004028,392.683289 
	C460.835449,392.683990 473.169342,392.789246 485.499451,392.619049 
	C489.003479,392.570679 490.449036,393.653229 491.019257,397.243103 
	C501.915527,465.844696 512.942444,534.425537 523.920715,603.014160 
	C525.054871,610.099854 524.991699,610.111145 517.791687,610.112183 
	C507.959045,610.113708 498.119354,609.896851 488.297119,610.216370 
	C484.169189,610.350708 482.780487,608.814270 482.333130,604.990540 
	C481.540009,598.211609 480.185547,591.498108 479.398621,584.718689 
	C478.999878,581.283508 477.437866,580.309448 474.184204,580.357544 
	C464.187073,580.505310 454.184906,580.510803 444.187988,580.356506 
	C440.854828,580.305054 439.419373,581.485352 439.024658,584.826355 
	C438.204193,591.771301 436.843964,598.654968 436.110931,605.606567 
	C435.722260,609.292358 434.150909,610.261902 430.645569,610.184448 
	C421.150879,609.974426 411.644623,609.954163 402.150970,610.186035 
	C398.008484,610.287170 397.071289,609.061768 397.738647,604.941895 
	C406.767700,549.199768 415.631897,493.430939 424.540619,437.669312 
	C426.669159,424.346375 428.983398,411.049591 430.844727,397.689575 
	C431.419006,393.567413 433.136566,392.331451 437.009918,392.627838 
	C440.489349,392.894104 444.005249,392.683563 448.004028,392.683289 
M446.925262,532.262024 
	C446.555084,534.898682 446.270966,537.551086 445.791718,540.167786 
	C445.256073,543.092163 446.468567,544.051758 449.288818,544.006592 
	C455.946716,543.899902 462.608002,543.921021 469.266815,543.994446 
	C472.149231,544.026245 473.080536,542.862183 472.642395,540.006653 
	C468.882019,515.497864 465.229126,490.972504 461.412170,466.472656 
	C461.176819,464.961884 459.825470,463.624969 458.993317,462.207184 
	C458.253296,463.711548 457.083710,465.149200 456.838104,466.730377 
	C453.492188,488.272797 450.274139,509.835022 446.925262,532.262024 
z"/>
<path fill="#303030" opacity="1.000000" stroke="none" 
	d="
M214.614731,511.891479 
	C214.553436,522.531982 215.517700,521.130005 205.832764,521.184204 
	C194.835098,521.245728 183.836823,521.196289 172.838821,521.199402 
	C166.164001,521.201233 166.162186,521.204895 166.161957,528.130493 
	C166.161148,553.625854 166.058334,579.122070 166.259567,604.615845 
	C166.294601,609.054443 165.010284,610.346985 160.608551,610.214966 
	C150.286362,609.905457 139.943314,609.923157 129.619690,610.207642 
	C125.356812,610.325134 124.279213,608.846191 124.295204,604.775818 
	C124.430084,570.449219 124.372414,536.121887 124.372498,501.794739 
	C124.372581,467.467621 124.454781,433.140076 124.276604,398.813873 
	C124.252167,394.107422 125.430595,392.507690 130.373535,392.542389 
	C161.033142,392.757568 191.695435,392.730530 222.355621,392.561157 
	C226.735504,392.536957 228.177368,393.777283 228.021103,398.212646 
	C227.704422,407.199860 227.661118,416.217072 228.033524,425.200012 
	C228.233627,430.026489 226.428589,431.077026 221.976196,431.019135 
	C204.982147,430.798157 187.982635,431.021515 170.987305,430.856964 
	C167.289505,430.821167 166.044510,431.937714 166.091156,435.684540 
	C166.267471,449.846436 166.257889,464.012970 166.095245,478.175201 
	C166.053436,481.817413 167.113785,483.154724 170.908722,483.095612 
	C183.569992,482.898315 196.242249,483.246460 208.897629,482.909790 
	C213.700790,482.782043 214.894058,484.435760 214.701981,488.916687 
	C214.381149,496.401398 214.614655,503.909851 214.614731,511.891479 
z"/>
<path fill="#2E2E2E" opacity="1.000000" stroke="none" 
	d="
M264.603699,551.999756 
	C264.603912,500.694336 264.671539,449.888702 264.498352,399.083893 
	C264.481384,394.102783 265.703888,392.359680 270.883362,392.572388 
	C280.694763,392.975342 290.544861,392.957672 300.358032,392.576996 
	C305.373077,392.382416 306.393250,394.220367 306.381012,398.867035 
	C306.235535,454.169586 306.286163,509.472656 306.288116,564.775574 
	C306.288361,571.938049 306.295349,571.939636 313.229980,571.940063 
	C329.720917,571.941101 346.213013,572.045715 362.701965,571.865112 
	C366.719421,571.821106 368.338257,572.854614 368.204895,577.160706 
	C367.916229,586.479980 368.003998,595.816406 368.172882,605.141541 
	C368.236053,608.631226 367.431488,610.203125 363.487000,610.185852 
	C332.004913,610.047791 300.521759,610.057373 269.039520,610.177612 
	C265.393768,610.191467 264.534088,608.787109 264.554108,605.470337 
	C264.660736,587.814087 264.603973,570.156738 264.603699,551.999756 
z"/>
<path fill="#F0464F" opacity="1.000000" stroke="none" 
	d="
M277.278564,172.999969 
	C277.278473,141.005692 277.371979,109.510849 277.179108,78.017754 
	C277.149384,73.166298 278.618988,71.661316 283.433197,71.834145 
	C292.919220,72.174698 302.426147,71.933685 311.924408,71.934395 
	C319.097687,71.934937 319.102417,71.935753 319.102631,78.908722 
	C319.104156,127.566544 319.103668,176.224365 319.103577,224.882187 
	C319.103546,244.545273 318.975098,264.209839 319.200439,283.870331 
	C319.251282,288.307465 317.857758,289.666534 313.523071,289.563385 
	C303.197449,289.317810 292.858093,289.316986 282.532501,289.562469 
	C278.238800,289.664551 277.196411,287.992432 277.209290,283.979736 
	C277.327667,247.153442 277.278687,210.326630 277.278564,172.999969 
z"/>
<path fill="#B7B7B7" opacity="1.000000" stroke="none" 
	d="
M344.848602,255.000000 
	C344.848663,195.866776 344.847809,137.233536 344.850403,78.600311 
	C344.850708,71.981720 344.859680,71.975960 351.279236,71.972786 
	C361.106964,71.967934 370.936829,72.089607 380.761353,71.912468 
	C384.525940,71.844589 386.102081,72.911728 386.096558,76.982735 
	C386.002289,146.109863 386.002197,215.237183 386.103088,284.364258 
	C386.108612,288.139313 384.929779,289.229462 381.242798,289.154907 
	C370.753052,288.942810 360.251404,288.896515 349.764648,289.173004 
	C345.653717,289.281403 344.682983,287.795532 344.774200,283.981934 
	C345.001038,274.492767 344.848755,264.994568 344.848602,255.000000 
z"/>
<path fill="#49B4DE" opacity="1.000000" stroke="none" 
	d="
M453.000000,71.947899 
	C473.968903,71.947968 494.439545,72.093407 514.905396,71.843048 
	C519.844543,71.782631 521.204346,73.454643 521.036133,78.160606 
	C520.721313,86.969284 520.734131,95.804436 521.033997,104.614166 
	C521.186951,109.108215 519.517395,110.243324 515.247009,110.224457 
	C482.464142,110.079628 449.680115,110.091240 416.897095,110.216805 
	C413.079773,110.231422 411.534637,109.310783 411.648926,105.207550 
	C411.912903,95.729317 411.863312,86.236008 411.666901,76.754486 
	C411.590210,73.052406 412.845306,71.822556 416.555664,71.879959 
	C428.534607,72.065277 440.518188,71.948364 453.000000,71.947899 
z"/>
<path fill="#B7B7B7" opacity="1.000000" stroke="none" 
	d="
M416.189423,161.919067 
	C449.319641,161.917236 481.972778,162.021744 514.623840,161.808258 
	C519.741028,161.774796 521.280457,163.336960 521.070984,168.356201 
	C520.703125,177.170364 520.815735,186.014679 521.035156,194.838699 
	C521.134155,198.823212 519.634155,200.002045 515.775940,199.989258 
	C482.790619,199.879837 449.804718,199.889465 416.819305,199.979324 
	C413.199554,199.989197 411.755554,198.843582 411.828217,195.087921 
	C412.015076,185.429062 411.957214,175.763504 411.852234,166.102188 
	C411.821533,163.274277 412.481750,161.526932 416.189423,161.919067 
z"/>
<path fill="#F8F8F8" opacity="1.000000" stroke="none" 
	d="
M446.974915,531.827209 
	C450.274139,509.835022 453.492188,488.272797 456.838104,466.730377 
	C457.083710,465.149200 458.253296,463.711548 458.993347,462.207184 
	C459.825470,463.624969 461.176819,464.961884 461.412170,466.472656 
	C465.229126,490.972504 468.882019,515.497864 472.642395,540.006653 
	C473.080536,542.862183 472.149231,544.026245 469.266815,543.994446 
	C462.608002,543.921021 455.946716,543.899902 449.288818,544.006592 
	C446.468567,544.051758 445.256073,543.092163 445.791718,540.167786 
	C446.270966,537.551086 446.555084,534.898682 446.974915,531.827209 
z"/>
</svg>