<svg width="475" height="475" xmlns="http://www.w3.org/2000/svg" xml:space="preserve" enable-background="new 0 0 540 360" version="1.1">

 <g>
  <title>Layer 1</title>
  <g id="svg_33">
   <path stroke="null" id="svg_11" d="m6.504,375.70231c-7.36055,-10.37314 -6.51401,-24.98627 1.69546,-32.88934c8.29296,-7.98343 22.7164,-8.59107 32.10179,-1.35242c7.94332,6.12643 10.82197,18.27164 6.76026,28.52194c-3.73896,9.43582 -13.12773,15.03491 -23.39985,14.2063c-6.76698,-0.54584 -12.56778,-2.84222 -17.15766,-8.48648m1.82071,-9.6677c3.34776,8.89826 10.15085,13.46897 18.61276,12.50513c8.50599,-0.96887 14.74337,-7.14078 15.64059,-15.47641c1.02269,-9.50113 -3.24456,-17.34216 -11.19584,-19.97952c-14.15448,-4.69498 -26.84573,6.72912 -23.05751,22.9508z" fill="#0A0A0A"/>
   <path stroke="null" id="svg_12" d="m413.10428,345.86341c-0.00003,3.22177 -0.00003,5.97727 -0.00003,8.55579c3.72564,-1.31729 6.9873,-3.17081 10.4097,-3.54199c8.4003,-0.91098 15.22601,5.31689 16.14282,14.02008c0.99902,9.48349 -4.47336,17.36401 -13.0456,18.78634c-9.06701,1.50443 -18.17629,-3.8638 -19.02194,-12.4884c-1.00039,-10.20252 -0.67441,-20.54471 -0.6437,-30.82553c0.00351,-1.16941 1.80853,-2.33341 2.77823,-3.49988c1.11196,1.18207 2.66512,2.19156 3.21371,3.59399c0.56531,1.44507 0.15198,3.27295 0.16681,5.3996m20.2294,25.54563c1.34003,-7.77512 -0.97107,-12.87812 -6.64795,-14.67917c-5.19098,-1.64695 -10.7211,0.80304 -12.85581,5.69531c-2.36895,5.42914 -0.29843,12.16531 4.55295,14.81238c5.32935,2.90789 10.79618,1.00405 14.95081,-5.82852z" fill="#111111"/>
   <path stroke="null" id="svg_13" d="m123.12311,381.32813c-6.43181,-4.99399 -7.92711,-11.47192 -6.2184,-18.5534c1.578,-6.53986 6.22571,-10.60959 12.87053,-11.76428c6.57525,-1.14264 12.29498,0.8543 16.20996,6.44735c5.22114,7.45902 3.26292,15.98972 2.96904,24.19864c-0.02597,0.72516 -2.24519,2.17432 -2.8719,1.91269c-1.41422,-0.59039 -2.46889,-2.04199 -4.05048,-3.49225c-5.3313,4.1647 -11.74609,5.5228 -18.90875,1.25125m20.24425,-13.28274c-0.65914,-7.82346 -4.87452,-12.30304 -11.18609,-11.88709c-6.30009,0.41516 -10.45602,5.73602 -9.82562,12.57984c0.48854,5.30371 4.45584,9.34286 9.62374,9.79812c5.47785,0.48255 9.39929,-2.87793 11.38797,-10.49087z" fill="#0C0C0C"/>
   <path stroke="null" id="svg_14" d="m390.34787,353.77488c5.2753,3.93097 6.94168,9.15802 7.02923,15.07581c0.04929,3.33157 0.28193,6.69635 -0.10296,9.98352c-0.19846,1.69491 -1.56668,3.25286 -2.40634,4.87268c-1.53681,-1.02835 -3.07358,-2.05671 -3.95856,-2.6489c-4.70099,0.87915 -9.42651,2.52262 -14.08698,2.35504c-2.88613,-0.10376 -6.234,-2.42309 -8.39556,-4.68396c-5.55811,-5.81335 -5.48835,-15.84008 -0.4437,-22.03369c5.34045,-6.55682 13.57828,-7.72482 22.36487,-2.9205m-4.92715,23.71085c4.55377,-2.61664 6.4468,-6.65949 5.80746,-11.73636c-0.53317,-4.23383 -2.72614,-7.5679 -6.94812,-8.94928c-4.53327,-1.48325 -8.56348,-0.44318 -11.65143,3.33517c-2.92383,3.57761 -3.17044,9.71402 -0.65146,13.58133c2.7132,4.16544 6.9451,5.50461 13.44355,3.76914z" fill="#0C0C0C"/>
   <path stroke="null" id="svg_15" d="m298.20221,355.03928c0.90344,1.22748 1.65454,2.138 2.17905,3.16425c4.33758,8.48746 2.60403,11.38089 -6.77277,11.38107c-5.30908,0.00009 -10.6182,0 -15.95474,0c0.82196,7.18888 7.70572,10.85025 14.86688,8.29025c2.35242,-0.84097 5.17776,-4.06243 6.98306,0.01276c0.31848,0.71896 -3.44989,4.108 -5.80832,4.99548c-7.77258,2.9249 -16.51553,-0.38433 -20.3139,-7.12216c-3.76251,-6.67422 -2.32684,-16.14422 3.19,-21.04205c6.01901,-5.34363 14.39643,-5.32126 21.63074,0.3204m-2.74634,5.56345c-2.64493,-4.2641 -6.48398,-5.53613 -11.16473,-4.19251c-3.95249,1.13459 -6.62708,3.51697 -6.83847,8.03196c6.42401,0 12.63772,0 19.1976,0c-0.34226,-1.25287 -0.59619,-2.18244 -1.1944,-3.83945z" fill="#0C0C0C"/>
   <path stroke="null" id="svg_16" d="m173.45456,356.30656c-7.62958,1.12555 -9.26952,2.95337 -9.34126,10.00323c-0.04578,4.49726 0.20671,9.0138 -0.1599,13.48187c-0.11378,1.38663 -1.8199,2.64258 -2.79703,3.95835c-1.1244,-1.35166 -3.16478,-2.66617 -3.22136,-4.06116c-0.31714,-7.81665 -0.28405,-15.65646 -0.05742,-23.47928c0.05001,-1.72583 0.94878,-4.14062 2.2363,-4.87927c0.93987,-0.53925 3.15898,1.15131 5.18494,2.00714c12.66771,-6.83111 23.17116,-0.74188 23.34279,14.17838c0.04791,4.164 0.24353,8.35131 -0.13808,12.48083c-0.12273,1.3281 -1.87946,2.50519 -2.88864,3.75134c-1.03678,-1.24279 -2.86084,-2.4215 -2.96811,-3.73993c-0.37708,-4.63443 -0.03442,-9.32168 -0.20688,-13.97991c-0.22851,-6.17283 -2.35263,-8.44181 -8.98535,-9.72159z" fill="#111111"/>
   <path stroke="null" id="svg_17" d="m198.61173,374.29819c-2.30542,-6.98559 -1.84058,-13.25485 3.01441,-18.51556c4.4419,-4.81314 10.23696,-6.00626 16.46132,-4.52908c7.25629,1.72211 11.9574,7.94058 12.22992,15.67474c0.26093,7.40396 -4.04407,13.72269 -10.9658,16.09543c-7.12401,2.44211 -14.73535,0.13562 -19.06398,-5.80652c-0.58266,-0.79986 -1.04093,-1.69031 -1.67587,-2.91901m6.1658,-0.72155c4.20117,4.87643 8.70587,6.20154 13.54405,3.9841c4.23717,-1.94199 6.74245,-7.04871 5.92763,-12.08267c-0.85862,-5.30454 -4.43628,-8.78778 -9.53904,-9.2873c-8.55126,-0.83709 -13.51017,7.21024 -9.93264,17.38587z" fill="#0B0B0B"/>
   <path stroke="null" id="svg_18" d="m469.89868,367.31171c6.06674,6.43354 4.3234,13.49921 -3.73642,15.84589c-5.66226,1.64862 -11.31372,1.03391 -16.2919,-2.16711c-1.34729,-0.86628 -1.69501,-3.28714 -2.50152,-4.99442c1.86584,-0.02277 3.76907,-0.29217 5.58969,-0.0162c3.63958,0.55163 7.21514,1.73278 10.85766,1.93911c1.17993,0.06687 3.37207,-2.01834 3.48404,-3.2644c0.11044,-1.22983 -1.55615,-3.22897 -2.91876,-3.85446c-2.83569,-1.30167 -6.02145,-1.81491 -8.99786,-2.84195c-4.22495,-1.45786 -7.44773,-3.86478 -7.06119,-8.96851c0.36703,-4.84585 3.83838,-6.74795 7.90527,-7.75207c5.06598,-1.2508 10.03934,-0.72687 14.17426,2.62219c1.1857,0.96036 1.32382,3.21414 1.94226,4.87485c-1.63904,-0.09705 -3.31479,-0.01096 -4.90921,-0.33063c-3.00907,-0.60327 -5.95755,-1.88599 -8.95929,-1.97882c-1.36051,-0.04205 -2.78812,2.08462 -4.18531,3.22745c1.15131,1.23657 2.07789,3.02706 3.49726,3.60299c3.82391,1.55161 7.858,2.58521 12.11102,4.05609z" fill="#0B0B0B"/>
   <path stroke="null" id="svg_19" d="m358.34167,382.90226c-9.08984,0.47342 -17.87106,0.79303 -26.64315,0.6283c-1.09198,-0.02051 -3.03488,-2.59162 -3.0615,-4.0094c-0.24011,-12.79822 -0.24051,-25.60468 0,-38.40284c0.02668,-1.41906 1.99576,-2.80157 3.06403,-4.20101c0.97006,1.47338 2.74469,2.92742 2.78061,4.42324c0.24728,10.30277 0.13138,20.61423 0.13226,30.92292c0.00012,1.6206 0.00003,3.24118 0.00003,5.31952c7.0846,0 13.68988,-0.00806 20.2952,0.00326c3.45636,0.00592 5.67267,0.9711 3.43252,5.31601z" fill="#020202"/>
   <path stroke="null" id="svg_20" d="m65.65773,358.79966c-4.73811,6.73599 -4.36245,13.86917 0.73367,17.5961c4.08768,2.98941 8.28617,2.53125 12.69253,0.366c1.22143,-0.60019 3.12487,0.18759 4.7154,0.33853c-0.71044,1.45373 -1.04089,3.42074 -2.19498,4.27524c-6.06182,4.48797 -16.2243,2.97055 -21.29998,-2.91999c-5.37052,-6.23269 -5.35728,-16.30563 0.02954,-22.47122c5.099,-5.83624 14.58136,-7.14428 20.77772,-2.49261c1.55503,1.16733 3.52012,4.34256 2.98905,5.26211c-1.68238,2.91278 -3.71144,0.62763 -5.67715,-0.62585c-4.16083,-2.65323 -8.39427,-2.64392 -12.7658,0.67169z" fill="#0C0C0C"/>
   <path stroke="null" id="svg_21" d="m90.45696,356.18986c1.07878,-2.05506 2.37795,-3.77521 3.67713,-5.49539c0.39748,0.22668 0.79494,0.45336 1.19242,0.68005c0,-2.12897 -0.35623,-4.34085 0.11372,-6.36047c0.37,-1.58994 1.75871,-2.94285 2.69495,-4.40104c1.08427,1.51758 2.66029,2.89981 3.12489,4.58796c0.54622,1.98468 0.12796,4.23483 0.12796,5.21569c3.03342,1.77915 5.30878,3.11368 7.58414,4.44825c-2.25455,1.19509 -4.50908,2.39023 -7.52379,3.98828c0,3.78232 -0.10669,8.73654 0.03744,13.68347c0.09641,3.30823 1.94156,4.90219 5.35212,5.33072c1.29635,0.1629 2.38317,1.9931 3.5655,3.06344c-1.34595,0.94352 -2.62417,2.5691 -4.04977,2.71061c-5.70001,0.56598 -10.57466,-4.13587 -10.88844,-10.44999c-0.24631,-4.95636 -0.04941,-9.93475 -0.04941,-15.09552c-1.69709,-0.56271 -3.21778,-1.06695 -4.95886,-1.90606z" fill="#0D0D0D"/>
   <path stroke="null" id="svg_22" d="m238.91162,362.37257c-1.11142,-2.28272 -2.36532,-4.16684 -2.81119,-6.22599c-0.31057,-1.43457 0.48734,-3.1091 0.7901,-4.67645c1.40769,0.75598 3.49784,1.1568 4.10749,2.32813c2.98773,5.74038 5.57537,11.68875 8.3208,17.5559c0.41205,0.88056 0.91092,1.72049 1.71453,3.22501c3.23621,-6.95465 6.22556,-13.35431 9.19092,-19.76507c0.99012,-2.14051 1.97004,-4.91794 4.84803,-3.08094c0.91198,0.58213 0.93811,3.85471 0.25766,5.40933c-3.39478,7.75565 -7.07273,15.39292 -10.87137,22.96122c-0.7197,1.43393 -2.30246,2.98553 -3.74271,3.29574c-0.83423,0.17972 -2.55051,-1.8222 -3.22934,-3.16592c-2.92013,-5.78037 -5.60315,-11.68054 -8.57492,-17.86096z" fill="#0C0C0C"/>
   <path stroke="null" id="svg_23" d="m8.16056,365.65824c-3.62407,-15.84531 9.06718,-27.26941 23.22166,-22.57443c7.95128,2.63736 12.21853,10.47839 11.19584,19.97952c-0.89722,8.33563 -7.1346,14.50754 -15.64059,15.47641c-8.46191,0.96384 -15.265,-3.60687 -18.77691,-12.8815z" fill="#FCFCFC"/>
   <path stroke="null" id="svg_24" d="m433.15958,371.78059c-3.98053,6.46102 -9.44736,8.36486 -14.77671,5.45697c-4.85138,-2.64707 -6.9219,-9.38324 -4.55295,-14.81238c2.13471,-4.89227 7.66483,-7.34226 12.85581,-5.69531c5.67688,1.80105 7.98798,6.90405 6.47385,15.05072z" fill="#F9F9F9"/>
   <path stroke="null" id="svg_25" d="m143.33163,368.44199c-1.95295,7.21634 -5.87439,10.57682 -11.35224,10.09427c-5.1679,-0.45526 -9.1352,-4.49441 -9.62374,-9.79812c-0.6304,-6.84382 3.52553,-12.16468 9.82562,-12.57984c6.31157,-0.41595 10.52695,4.06363 11.15036,12.28369z" fill="#F9F9F9"/>
   <path stroke="null" id="svg_26" d="m385.05353,377.61204c-6.13126,1.60916 -10.36316,0.26999 -13.07636,-3.89545c-2.51898,-3.86731 -2.27237,-10.00372 0.65146,-13.58133c3.08795,-3.77835 7.11816,-4.81842 11.65143,-3.33517c4.22198,1.38138 6.41495,4.71545 6.94812,8.94928c0.63934,5.07687 -1.25369,9.11972 -6.17465,11.86267z" fill="#F9F9F9"/>
   <path stroke="null" id="svg_27" d="m295.62799,360.96647c0.42609,1.29327 0.68002,2.22284 1.02228,3.47571c-6.55988,0 -12.77359,0 -19.1976,0c0.21139,-4.51499 2.88598,-6.89737 6.83847,-8.03196c4.68075,-1.34362 8.5198,-0.07159 11.33685,4.55625z" fill="#F6F6F6"/>
   <path stroke="null" id="svg_28" d="m204.61166,373.2122c-3.41166,-9.81119 1.54725,-17.85852 10.09851,-17.02143c5.10276,0.49952 8.68042,3.98276 9.53904,9.2873c0.81482,5.03396 -1.69046,10.14068 -5.92763,12.08267c-4.83818,2.21744 -9.34288,0.89233 -13.70992,-4.34854z" fill="#F9F9F9"/>
   <g id="svg_30">
    <path id="svg_2" d="m244.49884,146.74513c-35.99618,-0.00007 -71.49237,0.01238 -106.98854,-0.01075c-7.10002,-0.00462 -10.44873,-3.4105 -9.99387,-9.96725c0.32494,-4.68406 3.22464,-7.63362 7.95031,-7.98709c1.49192,-0.11161 2.9983,-0.03581 4.49807,-0.03584c46.495,-0.00105 92.98999,-0.00087 139.48499,-0.00087c1.80768,0 3.61535,0.00001 5.73434,0.00001c0,-6.69431 0,-13.08285 0,-19.99835c-8.54141,0 -16.98752,0.02213 -25.43347,-0.00681c-7.09534,-0.02431 -10.34839,-2.98304 -10.24835,-9.23094c0.09503,-5.93113 3.33169,-8.75053 10.22238,-8.75581c25.83057,-0.01981 51.6611,-0.01962 77.49167,-0.00034c7.11697,0.00531 10.36606,2.95798 10.27896,9.19947c-0.08307,5.95625 -3.30252,8.76735 -10.19168,8.78673c-10.45114,0.0294 -20.90241,0.00768 -31.5755,0.00768c0,6.74857 0,13.01972 0,19.99838c5.07629,0 10.16885,-0.00117 15.26141,0.0003c5.99933,0.00173 12.00153,-0.10749 17.99719,0.04207c5.49152,0.13698 8.50059,3.43628 8.50861,8.93633c0.00806,5.51654 -2.98666,8.90316 -8.46393,8.9722c-10.97033,0.13828 -21.9436,0.04106 -33.22244,0.04106c0,5.71448 0,11.10285 0,17.00956c10.88883,0 21.66995,-0.06142 32.44992,0.02272c6.6153,0.05164 10.14294,4.20849 9.15607,10.72047c-0.69464,4.584 -3.51844,7.19674 -8.15457,7.20877c-27.16349,0.0705 -54.32749,0.09103 -81.49076,-0.01271c-5.37497,-0.02052 -8.34912,-3.61737 -8.26736,-9.15836c0.07757,-5.25674 3.02365,-8.62283 8.20511,-8.72084c8.99344,-0.1701 17.99243,-0.04726 27.38965,-0.04726c0,-5.52096 0,-10.91486 0,-17.01253c-13.25232,0 -26.67527,0 -40.59821,0z" fill="#676767"/>
    <path id="svg_3" d="m127.51149,100.56035c0.47704,-7.19474 3.01775,-9.79094 9.54855,-9.80053c26.96704,-0.03959 53.93421,-0.03881 80.90125,-0.00008c6.31923,0.00908 9.50899,3.09275 9.53499,8.91733c0.02615,5.85974 -3.15622,9.03885 -9.40064,9.04895c-27.1335,0.04387 -54.26715,0.04456 -81.40065,-0.00275c-5.65358,-0.00986 -7.71948,-1.88605 -9.1835,-8.16292z" fill="#676767"/>
    <path id="svg_4" d="m179.49884,290.74607c-14.13863,-0.00003 -27.77727,0.01233 -41.41588,-0.00505c-7.28447,-0.00929 -10.5281,-2.7525 -10.5816,-8.86845c-0.05431,-6.20842 3.19082,-9.11805 10.32496,-9.12288c26.44564,-0.01795 52.89126,-0.01784 79.33689,-0.00006c7.13922,0.00479 10.38388,2.90873 10.33313,9.11477c-0.05005,6.11995 -3.2927,8.86591 -10.57346,8.87662c-12.308,0.01811 -24.61603,0.00502 -37.42404,0.00505z" fill="#676767"/>
    <path id="svg_5" d="m192.49884,234.74241c8.81624,0.00029 17.13278,-0.04405 25.44859,0.01536c6.32323,0.04517 9.51216,3.07905 9.54888,8.89301c0.03702,5.86212 -3.14243,9.06401 -9.3619,9.07445c-27.11084,0.04551 -54.22184,0.0471 -81.33268,-0.00134c-6.21183,-0.01111 -9.36255,-3.23347 -9.30037,-9.13465c0.06112,-5.79987 3.25004,-8.8158 9.61037,-8.83089c18.29562,-0.04342 36.59139,-0.01571 55.38711,-0.01594z" fill="#676767"/>
    <path id="svg_6" d="m219.89732,163.78172c6.18621,1.96859 8.32585,5.20487 7.53963,10.76485c-0.66974,4.73622 -3.87778,7.18192 -9.71052,7.18763c-26.79332,0.02621 -53.58669,0.02887 -80.38001,-0.00054c-6.67008,-0.00733 -9.89359,-3.06272 -9.84506,-9.10739c0.04794,-5.97504 3.27166,-8.86987 10.08098,-8.8742c27.29254,-0.01738 54.58511,0.00166 82.31498,0.02965z" fill="#676767"/>
    <path id="svg_7" d="m167.49884,217.74607c-10.47948,-0.00027 -20.45921,0.0412 -30.43835,-0.01591c-6.3293,-0.03623 -9.51829,-3.07059 -9.55913,-8.88222c-0.04123,-5.86739 3.1347,-9.07395 9.35167,-9.08449c27.11085,-0.04599 54.22186,-0.04704 81.33271,0.00093c6.21279,0.011 9.36873,3.23042 9.31057,9.12465c-0.05728,5.80232 -3.24613,8.82343 -9.60015,8.84094c-16.63234,0.04586 -33.26486,0.01587 -50.39732,0.0161z" fill="#676767"/>
    <path id="svg_8" d="m295.49884,234.74235c14.13812,0.00003 27.77631,-0.01232 41.4144,0.00503c7.28512,0.00928 10.52871,2.75139 10.58313,8.86638c0.05524,6.20894 -3.18994,9.12003 -10.32218,9.12506c-25.77938,0.01825 -51.5588,0.0181 -77.33819,0.00013c-7.14008,-0.00499 -10.38446,-2.9074 -10.33466,-9.11268c0.04914,-6.12095 3.29135,-8.8674 10.57056,-8.87892c11.64227,-0.01842 23.28464,-0.00497 35.42694,-0.005z" fill="#676767"/>
    <path id="svg_9" d="m315.49884,290.74613c-19.29401,-0.00059 -38.08829,0.05179 -56.88193,-0.02974c-6.83154,-0.02963 -10.70444,-5.21823 -8.87704,-11.78393c1.10162,-3.95804 3.87814,-6.15813 8.05868,-6.16263c27.10987,-0.02924 54.21994,-0.06815 81.3295,0.0283c5.42023,0.01929 8.40134,3.51743 8.36832,9.03485c-0.03272,5.46737 -3.05686,8.76717 -8.5463,8.86954c-7.64801,0.14263 -15.30059,0.0408 -23.45123,0.04361z" fill="#676767"/>
    <path id="svg_10" d="m329.48035,217.74613c-23.78183,-0.00021 -47.06723,0.02469 -70.35257,-0.01648c-6.72034,-0.01188 -9.98279,-3.43342 -9.61615,-9.81202c0.28204,-4.90716 3.25418,-8.10154 8.276,-8.11872c27.1105,-0.09276 54.22162,-0.09698 81.33209,-0.00117c5.42511,0.01916 8.40662,3.51014 8.37665,9.02736c-0.02973,5.46931 -3.05319,8.67828 -8.53897,8.89219c-2.98938,0.11655 -5.98685,0.026 -9.47705,0.02884z" fill="#676767"/>
   </g>
  </g>
 </g>
</svg>