<svg version="1.1" id="Layer_1" xmlns="http://www.w3.org/2000/svg" xmlns:xlink="http://www.w3.org/1999/xlink" x="0px" y="0px"
	 width="100%" viewBox="0 0 540 360" enable-background="new 0 0 540 360" xml:space="preserve">
<path fill="#FFFFFF" opacity="1.000000" stroke="none" 
	d="
M392.000000,361.000000 
	C261.369476,361.000000 131.238922,361.000000 1.054197,361.000000 
	C1.054197,241.069458 1.054197,121.138893 1.054197,1.104162 
	C180.880539,1.104162 360.761169,1.104162 540.820923,1.104162 
	C540.820923,120.999779 540.820923,240.999878 540.820923,361.000000 
	C491.472198,361.000000 441.986115,361.000000 392.000000,361.000000 
M278.500000,90.000893 
	C291.922943,90.000893 305.345886,90.000893 318.598206,90.000893 
	C318.598206,96.098564 318.598206,101.492462 318.598206,107.013420 
	C309.200989,107.013420 300.201996,106.890579 291.208557,107.060684 
	C286.027100,107.158691 283.081024,110.524780 283.003448,115.781517 
	C282.921692,121.322510 285.895844,124.919357 291.270813,124.939880 
	C318.434082,125.043617 345.598083,125.023094 372.761566,124.952591 
	C377.397705,124.940559 380.221497,122.327820 380.916138,117.743820 
	C381.903015,111.231842 378.375366,107.074989 371.760071,107.023354 
	C360.980103,106.939209 350.198975,107.000633 339.310150,107.000633 
	C339.310150,101.093918 339.310150,95.705551 339.310150,89.991066 
	C350.588989,89.991066 361.562256,90.088287 372.532593,89.950005 
	C378.009857,89.880974 381.004578,86.494354 380.996521,80.977814 
	C380.988495,75.477760 377.979431,72.178459 372.487915,72.041481 
	C366.492249,71.891922 360.490051,72.001137 354.490723,71.999413 
	C349.398163,71.997940 344.305603,71.999107 339.229309,71.999107 
	C339.229309,65.020447 339.229309,58.749302 339.229309,52.000732 
	C349.902405,52.000732 360.353668,52.022449 370.804810,51.993050 
	C377.693970,51.973671 380.913422,49.162567 380.996490,43.206318 
	C381.083588,36.964828 377.834503,34.012157 370.717529,34.006847 
	C344.886963,33.987568 319.056427,33.987381 293.225861,34.007191 
	C286.335175,34.012474 283.098511,36.831867 283.003479,42.762997 
	C282.903442,49.010902 286.156494,51.969627 293.251831,51.993938 
	C301.697784,52.022877 310.143890,52.000748 318.685303,52.000748 
	C318.685303,58.916245 318.685303,65.304787 318.685303,71.999100 
	C316.566315,71.999100 314.758636,71.999092 312.950958,71.999092 
	C266.455963,71.999092 219.960968,71.998909 173.465973,71.999962 
	C171.966202,71.999992 170.459824,71.924187 168.967896,72.035797 
	C164.242233,72.389275 161.342529,75.338829 161.017593,80.022888 
	C160.562729,86.579636 163.911438,89.985519 171.011459,89.990143 
	C206.507629,90.013268 242.003815,90.000824 278.500000,90.000893 
M161.022858,44.223663 
	C162.476669,50.092983 164.542572,51.969173 170.196152,51.979031 
	C197.329651,52.026340 224.463303,52.025654 251.596802,51.981781 
	C257.841217,51.971684 261.023590,48.792568 260.997437,42.932827 
	C260.971436,37.108250 257.781677,34.024578 251.462448,34.015503 
	C224.495407,33.976772 197.528244,33.975990 170.561203,34.015579 
	C164.030396,34.025166 161.489685,36.621368 161.022858,44.223663 
M213.500000,234.001831 
	C225.808014,234.001801 238.116043,234.014893 250.424042,233.996780 
	C257.704803,233.986069 260.947449,231.240112 260.997498,225.120163 
	C261.048248,218.914124 257.803589,216.010178 250.664368,216.005386 
	C224.218735,215.987610 197.773117,215.987503 171.327484,216.005447 
	C164.193344,216.010284 160.948212,218.919907 161.002518,225.128326 
	C161.056015,231.244278 164.299652,233.987488 171.584122,233.996780 
	C185.222733,234.014160 198.861374,234.001801 213.500000,234.001831 
M225.500000,177.998169 
	C207.204285,177.998398 188.908508,177.970688 170.612885,178.014114 
	C164.252563,178.029205 161.063644,181.045135 161.002518,186.845001 
	C160.940338,192.746185 164.091064,195.968536 170.302887,195.979645 
	C197.413727,196.028091 224.524734,196.026505 251.635574,195.980988 
	C257.855042,195.970551 261.034485,192.768661 260.997467,186.906540 
	C260.960754,181.092575 257.771820,178.058701 251.448593,178.013535 
	C243.132782,177.954117 234.816238,177.998459 225.500000,177.998169 
M252.961166,107.015060 
	C225.668610,107.009491 198.376038,106.990448 171.083496,107.007828 
	C164.274185,107.012161 161.050461,109.906990 161.002518,115.882034 
	C160.953995,121.926697 164.177505,124.982094 170.847580,124.989418 
	C197.640900,125.018829 224.434265,125.016174 251.227585,124.989960 
	C257.060333,124.984253 260.268372,122.538551 260.938110,117.802330 
	C261.724335,112.242348 259.584686,109.006065 252.961166,107.015060 
M201.500000,161.001831 
	C218.132462,161.001602 234.764984,161.031586 251.397324,160.985733 
	C257.751343,160.968216 260.940186,157.947113 260.997467,152.144791 
	C261.055634,146.250565 257.899689,143.031143 251.686905,143.020142 
	C224.576050,142.972168 197.465042,142.973221 170.354187,143.019211 
	C164.137222,143.029755 160.961288,146.236313 161.002518,152.103699 
	C161.043365,157.915329 164.232346,160.949692 170.561646,160.985916 
	C180.540787,161.043030 190.520523,161.001556 201.500000,161.001831 
M328.500000,177.998108 
	C316.857697,177.998138 305.215332,177.984695 293.573059,178.003113 
	C286.293854,178.014633 283.051636,180.761078 283.002502,186.882034 
	C282.952698,193.087311 286.197083,195.989716 293.337158,195.994705 
	C319.116547,196.012680 344.895966,196.012833 370.675354,195.994583 
	C377.807587,195.989548 381.052765,193.078461 380.997528,186.869522 
	C380.943115,180.754532 377.699524,178.012421 370.414398,178.003143 
	C356.776306,177.985794 343.138123,177.998138 328.500000,177.998108 
M349.500000,234.001892 
	C357.150635,233.999084 364.803223,234.100906 372.451233,233.958282 
	C377.940674,233.855911 380.964813,230.556107 380.997528,225.088745 
	C381.030548,219.571320 378.049438,216.073181 372.629211,216.053894 
	C345.519653,215.957443 318.409576,215.996353 291.299713,216.025589 
	C287.119171,216.030090 284.342651,218.230179 283.241028,222.188217 
	C281.413635,228.753922 285.286530,233.942520 292.118073,233.972153 
	C310.911713,234.053680 329.705994,234.001297 349.500000,234.001892 
M363.477905,161.001907 
	C366.471710,160.999054 369.469177,161.089600 372.458557,160.973053 
	C377.944336,160.759140 380.967804,157.550171 380.997528,152.080856 
	C381.027496,146.563644 378.045990,143.072662 372.620880,143.053497 
	C345.510406,142.957687 318.399292,142.961914 291.288788,143.054672 
	C286.266968,143.071854 283.294830,146.266235 283.012787,151.173386 
	C282.646149,157.551987 285.908600,160.973526 292.628937,160.985413 
	C315.914276,161.026581 339.199677,161.001678 363.477905,161.001907 
M40.197182,319.266052 
	C44.595039,324.602325 50.395836,326.898712 57.162815,327.444550 
	C67.434944,328.273163 76.823708,322.674072 80.562675,313.238251 
	C84.624382,302.987946 81.745728,290.842743 73.802406,284.716309 
	C64.417023,277.477661 49.993576,278.085297 41.700619,286.068726 
	C33.491150,293.971802 32.644608,308.584930 40.197182,319.266052 
M446.605469,288.652893 
	C446.590607,286.992523 447.003937,285.164642 446.438629,283.719574 
	C445.890045,282.317139 444.336884,281.307648 443.224915,280.125580 
	C442.255219,281.292053 440.450195,282.456055 440.446686,283.625458 
	C440.415985,293.906281 440.089996,304.248474 441.090393,314.450989 
	C441.936035,323.075592 451.045319,328.443817 460.112335,326.939392 
	C468.684570,325.517059 474.156952,317.636536 473.157928,308.153046 
	C472.241119,299.449860 465.415405,293.221985 457.015106,294.132965 
	C453.592712,294.504150 450.331055,296.357666 446.605408,297.674957 
	C446.605408,295.096436 446.605408,292.340942 446.605469,288.652893 
M156.915573,324.822876 
	C163.786926,328.855438 170.201721,327.497345 175.533020,323.332642 
	C177.114609,324.782898 178.169281,326.234497 179.583496,326.824890 
	C180.210205,327.086517 182.429428,325.637360 182.455399,324.912201 
	C182.749283,316.703278 184.707504,308.172577 179.486359,300.713562 
	C175.571381,295.120514 169.851654,293.123566 163.276398,294.266205 
	C156.631577,295.420898 151.983871,299.490631 150.405869,306.030487 
	C148.697159,313.111969 150.192459,319.589905 156.915573,324.822876 
M423.539093,296.824097 
	C415.062439,292.226318 406.824615,293.394318 401.484161,299.951141 
	C396.439514,306.144745 396.369751,316.171478 401.927856,321.984833 
	C404.089417,324.245697 407.437286,326.565033 410.323425,326.668793 
	C414.983887,326.836365 419.709412,325.192902 424.410400,324.313751 
	C425.295380,324.905945 426.832153,325.934296 428.368958,326.962646 
	C429.208618,325.342834 430.576843,323.784882 430.775299,322.089966 
	C431.160187,318.802795 430.927551,315.438019 430.878265,312.106445 
	C430.790710,306.188660 429.124329,300.961609 423.539093,296.824097 
M331.446014,298.031708 
	C324.469055,292.653381 316.091644,292.631012 310.072632,297.974640 
	C304.555786,302.872467 303.120117,312.342468 306.882629,319.016693 
	C310.681000,325.754517 319.423950,329.063751 327.196533,326.138855 
	C329.554962,325.251373 333.323334,321.862335 333.004852,321.143372 
	C331.199554,317.068176 328.374207,320.289642 326.021790,321.130615 
	C318.860626,323.690613 311.976868,320.029236 311.154907,312.840363 
	C316.491455,312.840363 321.800568,312.840454 327.109650,312.840363 
	C336.486450,312.840179 338.220001,309.946747 333.882416,301.459290 
	C333.357910,300.433044 332.606812,299.522522 331.446014,298.031708 
M207.374802,299.639587 
	C213.588440,300.842102 215.712555,303.111084 215.941071,309.283905 
	C216.113525,313.942139 215.770874,318.629395 216.147949,323.263824 
	C216.255219,324.582245 218.079285,325.760956 219.116058,327.003754 
	C220.125244,325.757599 221.881973,324.580505 222.004700,323.252411 
	C222.386307,319.122894 222.190689,314.935577 222.142776,310.771576 
	C221.971146,295.851318 211.467697,289.762085 198.799988,296.593201 
	C196.774033,295.737366 194.554916,294.046814 193.615051,294.586060 
	C192.327530,295.324707 191.428757,297.739502 191.378754,299.465332 
	C191.152115,307.288147 191.119034,315.127960 191.436172,322.944611 
	C191.492752,324.339600 193.533127,325.654114 194.657532,327.005768 
	C195.634659,325.690002 197.340775,324.434052 197.454559,323.047424 
	C197.821167,318.579346 197.568680,314.062805 197.614456,309.565552 
	C197.686203,302.515686 199.326141,300.687866 207.374802,299.639587 
M232.231964,317.934143 
	C232.747833,318.782654 233.206100,319.673096 233.788757,320.472961 
	C238.117386,326.415100 245.728729,328.721588 252.852737,326.279480 
	C259.774475,323.906738 264.079468,317.588013 263.818542,310.184052 
	C263.546021,302.449890 258.844910,296.231415 251.588623,294.509308 
	C245.364258,293.032135 239.569199,294.225250 235.127304,299.038391 
	C230.272308,304.299103 229.807465,310.568359 232.231964,317.934143 
M503.097473,310.335785 
	C499.146820,309.096588 495.112732,308.062988 491.288818,306.511383 
	C489.869446,305.935455 488.942871,304.144958 487.791565,302.908386 
	C489.188751,301.765564 490.616364,299.638885 491.976868,299.680939 
	C494.978607,299.773773 497.927094,301.056488 500.936157,301.659760 
	C502.530579,301.979431 504.206329,301.893341 505.845367,301.990387 
	C505.226929,300.329681 505.088806,298.075897 503.903107,297.115540 
	C499.768188,293.766479 494.794830,293.242554 489.728851,294.493347 
	C485.661957,295.497467 482.190613,297.399567 481.823578,302.245422 
	C481.437042,307.349152 484.659821,309.756073 488.884766,311.213928 
	C491.861176,312.240967 495.046936,312.754211 497.882629,314.055878 
	C499.245239,314.681366 500.911835,316.680511 500.801392,317.910339 
	C500.689423,319.156403 498.497284,321.241608 497.317352,321.174744 
	C493.674835,320.968414 490.099274,319.787262 486.459686,319.235626 
	C484.639069,318.959656 482.735840,319.229065 480.869995,319.251801 
	C481.676514,320.959106 482.024231,323.379974 483.371521,324.246246 
	C488.349701,327.447266 494.001160,328.061981 499.663422,326.413361 
	C507.723236,324.066681 509.466583,317.001007 503.097473,310.335785 
M392.154266,325.856049 
	C394.082977,321.813110 391.866669,320.847931 388.410309,320.842010 
	C381.804993,320.830688 375.199707,320.838745 368.115112,320.838745 
	C368.115112,318.760406 368.115204,317.139832 368.115082,315.519226 
	C368.114197,305.210541 368.230103,294.899078 367.982819,284.596313 
	C367.946899,283.100494 366.172272,281.646454 365.202179,280.173065 
	C364.133942,281.572510 362.164856,282.955017 362.138184,284.374084 
	C361.897675,297.172241 361.898071,309.978699 362.138184,322.776917 
	C362.164795,324.194702 364.107697,326.765808 365.199677,326.786316 
	C373.971771,326.951050 382.752991,326.631439 392.154266,325.856049 
M99.489838,301.824554 
	C103.530418,298.739807 107.763855,298.730499 111.924690,301.383728 
	C113.890404,302.637207 115.919456,304.922363 117.601837,302.009583 
	C118.132912,301.090027 116.167816,297.914795 114.612793,296.747467 
	C108.416428,292.095795 98.934067,293.403839 93.835068,299.240082 
	C88.448250,305.405670 88.435013,315.478607 93.805534,321.711304 
	C98.881210,327.601837 109.043694,329.119263 115.105507,324.631287 
	C116.259605,323.776794 116.590050,321.809784 117.300491,320.356049 
	C115.709961,320.205109 113.806519,319.417328 112.585091,320.017517 
	C108.178734,322.182770 103.980240,322.640930 99.892555,319.651520 
	C94.796440,315.924591 94.420784,308.791412 99.489838,301.824554 
M124.178497,299.780487 
	C125.699196,300.284729 127.219894,300.788971 128.916977,301.351685 
	C128.916977,306.512451 128.720078,311.490845 128.966385,316.447205 
	C129.280167,322.761322 134.154816,327.463165 139.854828,326.897186 
	C141.280426,326.755676 142.558655,325.130096 143.904602,324.186554 
	C142.722275,323.116241 141.635452,321.286041 140.339096,321.123138 
	C136.928543,320.694611 135.083389,319.100647 134.986984,315.792419 
	C134.842850,310.845490 134.949539,305.891266 134.949539,302.108948 
	C137.964249,300.510895 140.218781,299.315765 142.473312,298.120636 
	C140.197968,296.786102 137.922607,295.451569 134.889191,293.672424 
	C134.889191,292.691559 135.307449,290.441406 134.761230,288.456726 
	C134.296631,286.768585 132.720612,285.386353 131.636337,283.868774 
	C130.700104,285.326965 129.311386,286.679871 128.941391,288.269806 
	C128.471436,290.289429 128.827667,292.501312 128.827667,294.630280 
	C128.430191,294.403595 128.032730,294.176910 127.635254,293.950226 
	C126.336075,295.670410 125.036903,297.390564 124.178497,299.780487 
M272.615204,305.952179 
	C275.384552,311.808746 278.067566,317.708923 280.987701,323.489288 
	C281.666534,324.833008 283.382812,326.834930 284.217041,326.655212 
	C285.657288,326.345001 287.240051,324.793396 287.959747,323.359467 
	C291.758392,315.791168 295.436340,308.153900 298.831116,300.398254 
	C299.511566,298.843628 299.485443,295.571045 298.573456,294.988922 
	C295.695465,293.151917 294.715546,295.929352 293.725433,298.069855 
	C290.760071,304.480621 287.770721,310.880280 284.534515,317.834930 
	C283.730896,316.330414 283.232025,315.490479 282.819977,314.609924 
	C280.074554,308.742767 277.486908,302.794403 274.499176,297.054016 
	C273.889526,295.882690 271.799377,295.481873 270.391693,294.725891 
	C270.088928,296.293243 269.291016,297.967773 269.601593,299.402344 
	C270.047455,301.461487 271.301361,303.345612 272.615204,305.952179 
z"/>
<path fill="#676767" opacity="1.000000" stroke="none" 
	d="
M278.000000,90.000893 
	C242.003815,90.000824 206.507629,90.013268 171.011459,89.990143 
	C163.911438,89.985519 160.562729,86.579636 161.017593,80.022888 
	C161.342529,75.338829 164.242233,72.389275 168.967896,72.035797 
	C170.459824,71.924187 171.966202,71.999992 173.465973,71.999962 
	C219.960968,71.998909 266.455963,71.999092 312.950958,71.999092 
	C314.758636,71.999092 316.566315,71.999100 318.685303,71.999100 
	C318.685303,65.304787 318.685303,58.916245 318.685303,52.000748 
	C310.143890,52.000748 301.697784,52.022877 293.251831,51.993938 
	C286.156494,51.969627 282.903442,49.010902 283.003479,42.762997 
	C283.098511,36.831867 286.335175,34.012474 293.225861,34.007191 
	C319.056427,33.987381 344.886963,33.987568 370.717529,34.006847 
	C377.834503,34.012157 381.083588,36.964828 380.996490,43.206318 
	C380.913422,49.162567 377.693970,51.973671 370.804810,51.993050 
	C360.353668,52.022449 349.902405,52.000732 339.229309,52.000732 
	C339.229309,58.749302 339.229309,65.020447 339.229309,71.999107 
	C344.305603,71.999107 349.398163,71.997940 354.490723,71.999413 
	C360.490051,72.001137 366.492249,71.891922 372.487915,72.041481 
	C377.979431,72.178459 380.988495,75.477760 380.996521,80.977814 
	C381.004578,86.494354 378.009857,89.880974 372.532593,89.950005 
	C361.562256,90.088287 350.588989,89.991066 339.310150,89.991066 
	C339.310150,95.705551 339.310150,101.093918 339.310150,107.000633 
	C350.198975,107.000633 360.980103,106.939209 371.760071,107.023354 
	C378.375366,107.074989 381.903015,111.231842 380.916138,117.743820 
	C380.221497,122.327820 377.397705,124.940559 372.761566,124.952591 
	C345.598083,125.023094 318.434082,125.043617 291.270813,124.939880 
	C285.895844,124.919357 282.921692,121.322510 283.003448,115.781517 
	C283.081024,110.524780 286.027100,107.158691 291.208557,107.060684 
	C300.201996,106.890579 309.200989,107.013420 318.598206,107.013420 
	C318.598206,101.492462 318.598206,96.098564 318.598206,90.000893 
	C305.345886,90.000893 291.922943,90.000893 278.000000,90.000893 
z"/>
<path fill="#676767" opacity="1.000000" stroke="none" 
	d="
M161.012650,43.816109 
	C161.489685,36.621368 164.030396,34.025166 170.561203,34.015579 
	C197.528244,33.975990 224.495407,33.976772 251.462448,34.015503 
	C257.781677,34.024578 260.971436,37.108250 260.997437,42.932827 
	C261.023590,48.792568 257.841217,51.971684 251.596802,51.981781 
	C224.463303,52.025654 197.329651,52.026340 170.196152,51.979031 
	C164.542572,51.969173 162.476669,50.092983 161.012650,43.816109 
z"/>
<path fill="#676767" opacity="1.000000" stroke="none" 
	d="
M213.000000,234.001831 
	C198.861374,234.001801 185.222733,234.014160 171.584122,233.996780 
	C164.299652,233.987488 161.056015,231.244278 161.002518,225.128326 
	C160.948212,218.919907 164.193344,216.010284 171.327484,216.005447 
	C197.773117,215.987503 224.218735,215.987610 250.664368,216.005386 
	C257.803589,216.010178 261.048248,218.914124 260.997498,225.120163 
	C260.947449,231.240112 257.704803,233.986069 250.424042,233.996780 
	C238.116043,234.014893 225.808014,234.001801 213.000000,234.001831 
z"/>
<path fill="#676767" opacity="1.000000" stroke="none" 
	d="
M226.000000,177.998169 
	C234.816238,177.998459 243.132782,177.954117 251.448593,178.013535 
	C257.771820,178.058701 260.960754,181.092575 260.997467,186.906540 
	C261.034485,192.768661 257.855042,195.970551 251.635574,195.980988 
	C224.524734,196.026505 197.413727,196.028091 170.302887,195.979645 
	C164.091064,195.968536 160.940338,192.746185 161.002518,186.845001 
	C161.063644,181.045135 164.252563,178.029205 170.612885,178.014114 
	C188.908508,177.970688 207.204285,177.998398 226.000000,177.998169 
z"/>
<path fill="#676767" opacity="1.000000" stroke="none" 
	d="
M253.398483,107.037476 
	C259.584686,109.006065 261.724335,112.242348 260.938110,117.802330 
	C260.268372,122.538551 257.060333,124.984253 251.227585,124.989960 
	C224.434265,125.016174 197.640900,125.018829 170.847580,124.989418 
	C164.177505,124.982094 160.953995,121.926697 161.002518,115.882034 
	C161.050461,109.906990 164.274185,107.012161 171.083496,107.007828 
	C198.376038,106.990448 225.668610,107.009491 253.398483,107.037476 
z"/>
<path fill="#676767" opacity="1.000000" stroke="none" 
	d="
M201.000000,161.001831 
	C190.520523,161.001556 180.540787,161.043030 170.561646,160.985916 
	C164.232346,160.949692 161.043365,157.915329 161.002518,152.103699 
	C160.961288,146.236313 164.137222,143.029755 170.354187,143.019211 
	C197.465042,142.973221 224.576050,142.972168 251.686905,143.020142 
	C257.899689,143.031143 261.055634,146.250565 260.997467,152.144791 
	C260.940186,157.947113 257.751343,160.968216 251.397324,160.985733 
	C234.764984,161.031586 218.132462,161.001602 201.000000,161.001831 
z"/>
<path fill="#676767" opacity="1.000000" stroke="none" 
	d="
M329.000000,177.998108 
	C343.138123,177.998138 356.776306,177.985794 370.414398,178.003143 
	C377.699524,178.012421 380.943115,180.754532 380.997528,186.869522 
	C381.052765,193.078461 377.807587,195.989548 370.675354,195.994583 
	C344.895966,196.012833 319.116547,196.012680 293.337158,195.994705 
	C286.197083,195.989716 282.952698,193.087311 283.002502,186.882034 
	C283.051636,180.761078 286.293854,178.014633 293.573059,178.003113 
	C305.215332,177.984695 316.857697,177.998138 329.000000,177.998108 
z"/>
<path fill="#676767" opacity="1.000000" stroke="none" 
	d="
M349.000000,234.001892 
	C329.705994,234.001297 310.911713,234.053680 292.118073,233.972153 
	C285.286530,233.942520 281.413635,228.753922 283.241028,222.188217 
	C284.342651,218.230179 287.119171,216.030090 291.299713,216.025589 
	C318.409576,215.996353 345.519653,215.957443 372.629211,216.053894 
	C378.049438,216.073181 381.030548,219.571320 380.997528,225.088745 
	C380.964813,230.556107 377.940674,233.855911 372.451233,233.958282 
	C364.803223,234.100906 357.150635,233.999084 349.000000,234.001892 
z"/>
<path fill="#676767" opacity="1.000000" stroke="none" 
	d="
M362.981506,161.001892 
	C339.199677,161.001678 315.914276,161.026581 292.628937,160.985413 
	C285.908600,160.973526 282.646149,157.551987 283.012787,151.173386 
	C283.294830,146.266235 286.266968,143.071854 291.288788,143.054672 
	C318.399292,142.961914 345.510406,142.957687 372.620880,143.053497 
	C378.045990,143.072662 381.027496,146.563644 380.997528,152.080856 
	C380.967804,157.550171 377.944336,160.759140 372.458557,160.973053 
	C369.469177,161.089600 366.471710,160.999054 362.981506,161.001892 
z"/>
<path fill="#0A0A0A" opacity="1.000000" stroke="none" 
	d="
M40.005165,318.958069 
	C32.644608,308.584930 33.491150,293.971802 41.700619,286.068726 
	C49.993576,278.085297 64.417023,277.477661 73.802406,284.716309 
	C81.745728,290.842743 84.624382,302.987946 80.562675,313.238251 
	C76.823708,322.674072 67.434944,328.273163 57.162815,327.444550 
	C50.395836,326.898712 44.595039,324.602325 40.005165,318.958069 
M41.825874,309.290375 
	C45.173630,318.188629 51.976723,322.759338 60.438629,321.795502 
	C68.944618,320.826630 75.181999,314.654724 76.079224,306.319092 
	C77.101906,296.817963 72.834663,288.976929 64.883377,286.339569 
	C50.728897,281.644592 38.037651,293.068695 41.825874,309.290375 
z"/>
<path fill="#111111" opacity="1.000000" stroke="none" 
	d="
M446.605438,289.119171 
	C446.605408,292.340942 446.605408,295.096436 446.605408,297.674957 
	C450.331055,296.357666 453.592712,294.504150 457.015106,294.132965 
	C465.415405,293.221985 472.241119,299.449860 473.157928,308.153046 
	C474.156952,317.636536 468.684570,325.517059 460.112335,326.939392 
	C451.045319,328.443817 441.936035,323.075592 441.090393,314.450989 
	C440.089996,304.248474 440.415985,293.906281 440.446686,283.625458 
	C440.450195,282.456055 442.255219,281.292053 443.224915,280.125580 
	C444.336884,281.307648 445.890045,282.317139 446.438629,283.719574 
	C447.003937,285.164642 446.590607,286.992523 446.605438,289.119171 
M466.834839,314.664795 
	C468.174866,306.889679 465.863770,301.786682 460.186890,299.985626 
	C454.995911,298.338684 449.465790,300.788666 447.331085,305.680939 
	C444.962128,311.110077 447.032654,317.846252 451.884033,320.493317 
	C457.213379,323.401215 462.680206,321.497375 466.834839,314.664795 
z"/>
<path fill="#0C0C0C" opacity="1.000000" stroke="none" 
	d="
M156.624268,324.583893 
	C150.192459,319.589905 148.697159,313.111969 150.405869,306.030487 
	C151.983871,299.490631 156.631577,295.420898 163.276398,294.266205 
	C169.851654,293.123566 175.571381,295.120514 179.486359,300.713562 
	C184.707504,308.172577 182.749283,316.703278 182.455399,324.912201 
	C182.429428,325.637360 180.210205,327.086517 179.583496,326.824890 
	C178.169281,326.234497 177.114609,324.782898 175.533020,323.332642 
	C170.201721,327.497345 163.786926,328.855438 156.624268,324.583893 
M176.868515,311.301147 
	C176.209381,303.477692 171.994003,298.998108 165.682434,299.414062 
	C159.382339,299.829224 155.226410,305.150085 155.856812,311.993896 
	C156.345352,317.297607 160.312653,321.336761 165.480545,321.792023 
	C170.958405,322.274567 174.879837,318.914093 176.868515,311.301147 
z"/>
<path fill="#0C0C0C" opacity="1.000000" stroke="none" 
	d="
M423.849030,297.030640 
	C429.124329,300.961609 430.790710,306.188660 430.878265,312.106445 
	C430.927551,315.438019 431.160187,318.802795 430.775299,322.089966 
	C430.576843,323.784882 429.208618,325.342834 428.368958,326.962646 
	C426.832153,325.934296 425.295380,324.905945 424.410400,324.313751 
	C419.709412,325.192902 414.983887,326.836365 410.323425,326.668793 
	C407.437286,326.565033 404.089417,324.245697 401.927856,321.984833 
	C396.369751,316.171478 396.439514,306.144745 401.484161,299.951141 
	C406.824615,293.394318 415.062439,292.226318 423.849030,297.030640 
M418.921875,320.741486 
	C423.475647,318.124847 425.368683,314.082001 424.729340,309.005127 
	C424.196167,304.771301 422.003204,301.437225 417.781219,300.055847 
	C413.247955,298.572601 409.217743,299.612671 406.129791,303.391022 
	C403.205963,306.968628 402.959351,313.105042 405.478333,316.972351 
	C408.191528,321.137787 412.423431,322.476959 418.921875,320.741486 
z"/>
<path fill="#0C0C0C" opacity="1.000000" stroke="none" 
	d="
M331.703369,298.295044 
	C332.606812,299.522522 333.357910,300.433044 333.882416,301.459290 
	C338.220001,309.946747 336.486450,312.840179 327.109650,312.840363 
	C321.800568,312.840454 316.491455,312.840363 311.154907,312.840363 
	C311.976868,320.029236 318.860626,323.690613 326.021790,321.130615 
	C328.374207,320.289642 331.199554,317.068176 333.004852,321.143372 
	C333.323334,321.862335 329.554962,325.251373 327.196533,326.138855 
	C319.423950,329.063751 310.681000,325.754517 306.882629,319.016693 
	C303.120117,312.342468 304.555786,302.872467 310.072632,297.974640 
	C316.091644,292.631012 324.469055,292.653381 331.703369,298.295044 
M328.957031,303.858490 
	C326.312103,299.594391 322.473053,298.322357 317.792297,299.665985 
	C313.839813,300.800568 311.165222,303.182953 310.953827,307.697937 
	C317.377838,307.697937 323.591553,307.697937 330.151428,307.697937 
	C329.809174,306.445068 329.555237,305.515503 328.957031,303.858490 
z"/>
<path fill="#111111" opacity="1.000000" stroke="none" 
	d="
M206.955719,299.562317 
	C199.326141,300.687866 197.686203,302.515686 197.614456,309.565552 
	C197.568680,314.062805 197.821167,318.579346 197.454559,323.047424 
	C197.340775,324.434052 195.634659,325.690002 194.657532,327.005768 
	C193.533127,325.654114 191.492752,324.339600 191.436172,322.944611 
	C191.119034,315.127960 191.152115,307.288147 191.378754,299.465332 
	C191.428757,297.739502 192.327530,295.324707 193.615051,294.586060 
	C194.554916,294.046814 196.774033,295.737366 198.799988,296.593201 
	C211.467697,289.762085 221.971146,295.851318 222.142776,310.771576 
	C222.190689,314.935577 222.386307,319.122894 222.004700,323.252411 
	C221.881973,324.580505 220.125244,325.757599 219.116058,327.003754 
	C218.079285,325.760956 216.255219,324.582245 216.147949,323.263824 
	C215.770874,318.629395 216.113525,313.942139 215.941071,309.283905 
	C215.712555,303.111084 213.588440,300.842102 206.955719,299.562317 
z"/>
<path fill="#0B0B0B" opacity="1.000000" stroke="none" 
	d="
M232.112885,317.553955 
	C229.807465,310.568359 230.272308,304.299103 235.127304,299.038391 
	C239.569199,294.225250 245.364258,293.032135 251.588623,294.509308 
	C258.844910,296.231415 263.546021,302.449890 263.818542,310.184052 
	C264.079468,317.588013 259.774475,323.906738 252.852737,326.279480 
	C245.728729,328.721588 238.117386,326.415100 233.788757,320.472961 
	C233.206100,319.673096 232.747833,318.782654 232.112885,317.553955 
M238.278687,316.832397 
	C242.479858,321.708832 246.984558,323.033936 251.822739,320.816498 
	C256.059906,318.874512 258.565186,313.767792 257.750366,308.733826 
	C256.891754,303.429291 253.314087,299.946045 248.211334,299.446533 
	C239.660065,298.609436 234.701157,306.656769 238.278687,316.832397 
z"/>
<path fill="#0B0B0B" opacity="1.000000" stroke="none" 
	d="
M503.399841,310.567474 
	C509.466583,317.001007 507.723236,324.066681 499.663422,326.413361 
	C494.001160,328.061981 488.349701,327.447266 483.371521,324.246246 
	C482.024231,323.379974 481.676514,320.959106 480.869995,319.251831 
	C482.735840,319.229065 484.639069,318.959656 486.459686,319.235626 
	C490.099274,319.787262 493.674835,320.968414 497.317352,321.174744 
	C498.497284,321.241608 500.689423,319.156403 500.801392,317.910339 
	C500.911835,316.680511 499.245239,314.681366 497.882629,314.055878 
	C495.046936,312.754211 491.861176,312.240967 488.884766,311.213928 
	C484.659821,309.756073 481.437042,307.349152 481.823578,302.245422 
	C482.190613,297.399567 485.661957,295.497467 489.728851,294.493347 
	C494.794830,293.242554 499.768188,293.766479 503.903107,297.115540 
	C505.088806,298.075897 505.226929,300.329681 505.845367,301.990387 
	C504.206329,301.893341 502.530579,301.979431 500.936157,301.659760 
	C497.927094,301.056488 494.978607,299.773773 491.976868,299.680939 
	C490.616364,299.638885 489.188751,301.765564 487.791565,302.908386 
	C488.942871,304.144958 489.869446,305.935455 491.288818,306.511383 
	C495.112732,308.062988 499.146820,309.096588 503.399841,310.567474 
z"/>
<path fill="#020202" opacity="1.000000" stroke="none" 
	d="
M391.842834,326.158020 
	C382.752991,326.631439 373.971771,326.951050 365.199677,326.786316 
	C364.107697,326.765808 362.164795,324.194702 362.138184,322.776917 
	C361.898071,309.978699 361.897675,297.172241 362.138184,284.374084 
	C362.164856,282.955017 364.133942,281.572510 365.202209,280.173065 
	C366.172272,281.646454 367.946899,283.100494 367.982819,284.596313 
	C368.230103,294.899078 368.114197,305.210541 368.115082,315.519226 
	C368.115204,317.139832 368.115112,318.760406 368.115112,320.838745 
	C375.199707,320.838745 381.804993,320.830688 388.410309,320.842010 
	C391.866669,320.847931 394.082977,321.813110 391.842834,326.158020 
z"/>
<path fill="#0C0C0C" opacity="1.000000" stroke="none" 
	d="
M99.158890,302.055420 
	C94.420784,308.791412 94.796440,315.924591 99.892555,319.651520 
	C103.980240,322.640930 108.178734,322.182770 112.585091,320.017517 
	C113.806519,319.417328 115.709961,320.205109 117.300491,320.356049 
	C116.590050,321.809784 116.259605,323.776794 115.105507,324.631287 
	C109.043694,329.119263 98.881210,327.601837 93.805534,321.711304 
	C88.435013,315.478607 88.448250,305.405670 93.835068,299.240082 
	C98.934067,293.403839 108.416428,292.095795 114.612793,296.747467 
	C116.167816,297.914795 118.132912,301.090027 117.601837,302.009583 
	C115.919456,304.922363 113.890404,302.637207 111.924690,301.383728 
	C107.763855,298.730499 103.530418,298.739807 99.158890,302.055420 
z"/>
<path fill="#0D0D0D" opacity="1.000000" stroke="none" 
	d="
M123.958115,299.445618 
	C125.036903,297.390564 126.336075,295.670410 127.635254,293.950226 
	C128.032730,294.176910 128.430191,294.403595 128.827667,294.630280 
	C128.827667,292.501312 128.471436,290.289429 128.941391,288.269806 
	C129.311386,286.679871 130.700104,285.326965 131.636337,283.868774 
	C132.720612,285.386353 134.296631,286.768585 134.761230,288.456726 
	C135.307449,290.441406 134.889191,292.691559 134.889191,293.672424 
	C137.922607,295.451569 140.197968,296.786102 142.473328,298.120667 
	C140.218781,299.315765 137.964249,300.510895 134.949539,302.108948 
	C134.949539,305.891266 134.842850,310.845490 134.986984,315.792419 
	C135.083389,319.100647 136.928543,320.694611 140.339096,321.123138 
	C141.635452,321.286041 142.722275,323.116241 143.904602,324.186584 
	C142.558655,325.130096 141.280426,326.755676 139.854828,326.897186 
	C134.154816,327.463165 129.280167,322.761322 128.966385,316.447205 
	C128.720078,311.490845 128.916977,306.512451 128.916977,301.351685 
	C127.219894,300.788971 125.699196,300.284729 123.958115,299.445618 
z"/>
<path fill="#0C0C0C" opacity="1.000000" stroke="none" 
	d="
M272.412781,305.628326 
	C271.301361,303.345612 270.047455,301.461487 269.601593,299.402344 
	C269.291016,297.967773 270.088928,296.293243 270.391693,294.725891 
	C271.799377,295.481873 273.889526,295.882690 274.499176,297.054016 
	C277.486908,302.794403 280.074554,308.742767 282.819977,314.609924 
	C283.232025,315.490479 283.730896,316.330414 284.534515,317.834930 
	C287.770721,310.880280 290.760071,304.480621 293.725433,298.069855 
	C294.715546,295.929352 295.695465,293.151917 298.573456,294.988922 
	C299.485443,295.571045 299.511566,298.843628 298.831116,300.398254 
	C295.436340,308.153900 291.758392,315.791168 287.959747,323.359467 
	C287.240051,324.793396 285.657288,326.345001 284.217041,326.655212 
	C283.382812,326.834930 281.666534,324.833008 280.987701,323.489288 
	C278.067566,317.708923 275.384552,311.808746 272.412781,305.628326 
z"/>
<path fill="#FCFCFC" opacity="1.000000" stroke="none" 
	d="
M41.661720,308.914001 
	C38.037651,293.068695 50.728897,281.644592 64.883377,286.339569 
	C72.834663,288.976929 77.101906,296.817963 76.079224,306.319092 
	C75.181999,314.654724 68.944618,320.826630 60.438629,321.795502 
	C51.976723,322.759338 45.173630,318.188629 41.661720,308.914001 
z"/>
<path fill="#F9F9F9" opacity="1.000000" stroke="none" 
	d="
M466.660736,315.036346 
	C462.680206,321.497375 457.213379,323.401215 451.884033,320.493317 
	C447.032654,317.846252 444.962128,311.110077 447.331085,305.680939 
	C449.465790,300.788666 454.995911,298.338684 460.186890,299.985626 
	C465.863770,301.786682 468.174866,306.889679 466.660736,315.036346 
z"/>
<path fill="#F9F9F9" opacity="1.000000" stroke="none" 
	d="
M176.832794,311.697754 
	C174.879837,318.914093 170.958405,322.274567 165.480545,321.792023 
	C160.312653,321.336761 156.345352,317.297607 155.856812,311.993896 
	C155.226410,305.150085 159.382339,299.829224 165.682434,299.414062 
	C171.994003,298.998108 176.209381,303.477692 176.832794,311.697754 
z"/>
<path fill="#F9F9F9" opacity="1.000000" stroke="none" 
	d="
M418.554688,320.867798 
	C412.423431,322.476959 408.191528,321.137787 405.478333,316.972351 
	C402.959351,313.105042 403.205963,306.968628 406.129791,303.391022 
	C409.217743,299.612671 413.247955,298.572601 417.781219,300.055847 
	C422.003204,301.437225 424.196167,304.771301 424.729340,309.005127 
	C425.368683,314.082001 423.475647,318.124847 418.554688,320.867798 
z"/>
<path fill="#F6F6F6" opacity="1.000000" stroke="none" 
	d="
M329.129150,304.222229 
	C329.555237,305.515503 329.809174,306.445068 330.151428,307.697937 
	C323.591553,307.697937 317.377838,307.697937 310.953827,307.697937 
	C311.165222,303.182953 313.839813,300.800568 317.792297,299.665985 
	C322.473053,298.322357 326.312103,299.594391 329.129150,304.222229 
z"/>
<path fill="#F9F9F9" opacity="1.000000" stroke="none" 
	d="
M238.112823,316.467957 
	C234.701157,306.656769 239.660065,298.609436 248.211334,299.446533 
	C253.314087,299.946045 256.891754,303.429291 257.750366,308.733826 
	C258.565186,313.767792 256.059906,318.874512 251.822739,320.816498 
	C246.984558,323.033936 242.479858,321.708832 238.112823,316.467957 
z"/>
</svg>