<?xml version="1.0" encoding="UTF-8"?>
<svg xmlns="http://www.w3.org/2000/svg" xmlns:xlink="http://www.w3.org/1999/xlink" width="62px" height="64px" viewBox="0 0 62 64" version="1.1">
<g id="surface1">
<path style=" stroke:none;fill-rule:nonzero;fill:#397367;fill-opacity:1;" d="M 20.738281 49.675781 C 20.738281 49.925781 20.449219 50.125 20.085938 50.125 C 19.675781 50.164062 19.386719 49.960938 19.386719 49.675781 C 19.386719 49.425781 19.675781 49.226562 20.039062 49.226562 C 20.414062 49.1875 20.738281 49.386719 20.738281 49.675781 Z M 16.851562 49.113281 C 16.761719 49.363281 17.011719 49.648438 17.386719 49.726562 C 17.710938 49.851562 18.085938 49.726562 18.164062 49.476562 C 18.238281 49.226562 18 48.9375 17.625 48.824219 C 17.300781 48.738281 16.9375 48.863281 16.851562 49.113281 Z M 22.375 48.898438 C 22.011719 48.988281 21.761719 49.226562 21.800781 49.511719 C 21.835938 49.761719 22.164062 49.925781 22.539062 49.835938 C 22.898438 49.75 23.148438 49.511719 23.113281 49.261719 C 23.074219 49.023438 22.738281 48.863281 22.375 48.898438 Z M 30.601562 1 C 13.261719 1 0 14.164062 0 31.5 C 0 45.363281 8.726562 57.226562 21.1875 61.398438 C 22.789062 61.6875 23.351562 60.699219 23.351562 59.886719 C 23.351562 59.113281 23.3125 54.835938 23.3125 52.210938 C 23.3125 52.210938 14.5625 54.085938 12.726562 48.488281 C 12.726562 48.488281 11.300781 44.851562 9.25 43.914062 C 9.25 43.914062 6.386719 41.949219 9.449219 41.988281 C 9.449219 41.988281 12.5625 42.238281 14.273438 45.210938 C 17.011719 50.039062 21.601562 48.648438 23.386719 47.824219 C 23.675781 45.824219 24.488281 44.4375 25.386719 43.613281 C 18.398438 42.835938 11.351562 41.824219 11.351562 29.800781 C 11.351562 26.363281 12.300781 24.636719 14.300781 22.4375 C 13.976562 21.625 12.914062 18.273438 14.625 13.949219 C 17.238281 13.136719 23.25 17.324219 23.25 17.324219 C 25.75 16.625 28.4375 16.261719 31.101562 16.261719 C 33.761719 16.261719 36.449219 16.625 38.949219 17.324219 C 38.949219 17.324219 44.960938 13.125 47.574219 13.949219 C 49.289062 18.289062 48.226562 21.625 47.898438 22.4375 C 49.898438 24.648438 51.125 26.375 51.125 29.800781 C 51.125 41.863281 43.761719 42.824219 36.773438 43.613281 C 37.925781 44.601562 38.898438 46.476562 38.898438 49.414062 C 38.898438 53.625 38.863281 58.835938 38.863281 59.863281 C 38.863281 60.675781 39.4375 61.664062 41.023438 61.375 C 53.523438 57.226562 62 45.363281 62 31.5 C 62 14.164062 47.9375 1 30.601562 1 Z M 12.148438 44.113281 C 11.988281 44.238281 12.023438 44.523438 12.238281 44.761719 C 12.4375 44.960938 12.726562 45.050781 12.886719 44.886719 C 13.050781 44.761719 13.011719 44.476562 12.800781 44.238281 C 12.601562 44.039062 12.3125 43.949219 12.148438 44.113281 Z M 10.800781 43.101562 C 10.710938 43.261719 10.835938 43.460938 11.085938 43.585938 C 11.289062 43.710938 11.539062 43.675781 11.625 43.5 C 11.710938 43.335938 11.585938 43.136719 11.335938 43.011719 C 11.085938 42.9375 10.886719 42.976562 10.800781 43.101562 Z M 14.851562 47.550781 C 14.648438 47.710938 14.726562 48.085938 15.011719 48.324219 C 15.300781 48.613281 15.664062 48.648438 15.824219 48.449219 C 15.988281 48.289062 15.914062 47.914062 15.664062 47.675781 C 15.386719 47.386719 15.011719 47.351562 14.851562 47.550781 Z M 13.425781 45.710938 C 13.226562 45.835938 13.226562 46.164062 13.425781 46.449219 C 13.625 46.738281 13.960938 46.863281 14.125 46.738281 C 14.324219 46.574219 14.324219 46.25 14.125 45.960938 C 13.949219 45.675781 13.625 45.550781 13.425781 45.710938 Z M 13.425781 45.710938 "/>
</g>
</svg>
