<?xml version="1.0" encoding="UTF-8"?>
<svg xmlns="http://www.w3.org/2000/svg" xmlns:xlink="http://www.w3.org/1999/xlink" width="56px" height="64px" viewBox="0 0 56 64" version="1.1">
<g id="surface1">
<path style=" stroke:none;fill-rule:nonzero;fill:rgb(0%,0%,0%);fill-opacity:1;" d="M 52 4 L 3.988281 4 C 1.789062 4 0 5.8125 0 8.039062 L 0 55.960938 C 0 58.1875 1.789062 60 3.988281 60 L 52 60 C 54.199219 60 56 58.1875 56 55.960938 L 56 8.039062 C 56 5.8125 54.199219 4 52 4 Z M 16.925781 52 L 8.625 52 L 8.625 25.273438 L 16.9375 25.273438 L 16.9375 52 Z M 12.773438 21.625 C 10.113281 21.625 7.960938 19.460938 7.960938 16.8125 C 7.960938 14.164062 10.113281 12 12.773438 12 C 15.425781 12 17.585938 14.164062 17.585938 16.8125 C 17.585938 19.476562 15.4375 21.625 12.773438 21.625 Z M 48.039062 52 L 39.738281 52 L 39.738281 39 C 39.738281 35.898438 39.675781 31.914062 35.425781 31.914062 C 31.101562 31.914062 30.4375 35.289062 30.4375 38.773438 L 30.4375 52 L 22.136719 52 L 22.136719 25.273438 L 30.101562 25.273438 L 30.101562 28.925781 L 30.210938 28.925781 C 31.324219 26.824219 34.039062 24.613281 38.074219 24.613281 C 46.476562 24.613281 48.039062 30.148438 48.039062 37.351562 Z M 48.039062 52 "/>
</g>
</svg>
