<?xml version="1.0" encoding="UTF-8"?>
<svg xmlns="http://www.w3.org/2000/svg" xmlns:xlink="http://www.w3.org/1999/xlink" width="64px" height="64px" viewBox="0 0 64 64" version="1.1">
<g id="surface1">
<path style=" stroke:none;fill-rule:nonzero;fill:rgb(0%,0%,0%);fill-opacity:1;" d="M 32 44 C 29.933594 44 27.867188 43.320312 26.105469 41.949219 L 0 21.648438 L 0 50 C 0 53.3125 2.6875 56 6 56 L 58 56 C 61.3125 56 64 53.3125 64 50 L 64 21.648438 L 37.898438 41.960938 C 36.136719 43.324219 34.0625 44 32 44 Z M 2.035156 18.164062 L 28.5625 38.800781 C 30.585938 40.375 33.421875 40.375 35.445312 38.800781 L 61.96875 18.164062 C 63.136719 17.164062 64 15.625 64 14 C 64 10.6875 61.3125 8 58 8 L 6 8 C 2.6875 8 0 10.6875 0 14 C 0 15.625 0.75 17.164062 2.035156 18.164062 Z M 2.035156 18.164062 "/>
</g>
</svg>
