<?xml version="1.0" encoding="UTF-8"?>
<svg xmlns="http://www.w3.org/2000/svg" xmlns:xlink="http://www.w3.org/1999/xlink" width="56px" height="64px" viewBox="0 0 56 64" version="1.1">
<g id="surface1">
<path style=" stroke:none;fill-rule:nonzero;fill:rgb(0%,0%,0%);fill-opacity:1;" d="M 2.210938 41.539062 L 53.800781 41.539062 L 53.800781 44.289062 C 53.800781 49 50.136719 52.789062 45.636719 52.789062 L 43.261719 52.789062 L 32.414062 64 L 32.414062 52.789062 L 10.375 52.789062 C 5.875 52.789062 2.210938 49 2.210938 44.289062 Z M 2.210938 38.585938 L 53.800781 38.585938 L 53.800781 27.960938 L 2.210938 27.960938 Z M 2.210938 24.914062 L 53.800781 24.914062 L 53.800781 14.289062 L 2.210938 14.289062 Z M 45.625 0 L 10.375 0 C 5.875 0 2.210938 3.789062 2.210938 8.460938 L 2.210938 11.25 L 53.800781 11.25 L 53.800781 8.460938 C 53.789062 3.789062 50.125 0 45.625 0 Z M 45.625 0 "/>
</g>
</svg>
