<?xml version="1.0" encoding="UTF-8"?>
<svg xmlns="http://www.w3.org/2000/svg" xmlns:xlink="http://www.w3.org/1999/xlink" width="64px" height="64px" viewBox="0 0 64 64" version="1.1">
<g id="surface1">
<path style=" stroke:none;fill-rule:nonzero;fill:rgb(0%,0%,0%);fill-opacity:1;" d="M 29.625 0.0859375 C 24.988281 0.523438 21.460938 1.511719 17.613281 3.449219 C 14.550781 4.976562 12.0625 6.800781 9.425781 9.425781 C 6.625 12.238281 4.851562 14.710938 3.175781 18.1875 C 1.199219 22.261719 0.210938 26.3125 0.0390625 30.9375 C -0.148438 36.261719 0.949219 41.335938 3.324219 46.113281 C 4.988281 49.476562 6.710938 51.851562 9.425781 54.574219 C 12.1875 57.324219 14.574219 59.039062 17.9375 60.6875 C 20.289062 61.835938 21.800781 62.398438 24.1875 63 C 30.4375 64.574219 36.710938 64.273438 42.8125 62.113281 C 44.675781 61.449219 47.898438 59.835938 49.5625 58.726562 C 54.125 55.6875 57.898438 51.5 60.386719 46.6875 C 62.648438 42.335938 63.773438 38.011719 63.960938 33.0625 C 64.148438 27.738281 63.050781 22.664062 60.675781 17.886719 C 59.125 14.761719 57.386719 12.300781 54.949219 9.789062 C 52.25 6.988281 49.601562 5.0625 46.0625 3.3125 C 42.363281 1.488281 38.914062 0.5 34.8125 0.125 C 33.539062 0.0117188 30.648438 -0.0117188 29.625 0.0859375 Z M 41.226562 17.824219 C 42.1875 18.136719 43.136719 18.699219 43.886719 19.351562 L 44.324219 19.738281 L 45.199219 19.511719 C 46.238281 19.238281 47.613281 18.699219 48.351562 18.289062 C 48.636719 18.113281 48.875 18.039062 48.875 18.113281 C 48.875 18.386719 48.136719 19.710938 47.636719 20.351562 C 47.351562 20.710938 46.835938 21.210938 46.488281 21.460938 C 46.148438 21.726562 45.925781 21.949219 45.988281 21.976562 C 46.1875 22.039062 48.625 21.414062 49.289062 21.136719 L 49.886719 20.875 L 49.664062 21.261719 C 49.351562 21.8125 47.375 23.875 46.773438 24.289062 L 46.289062 24.636719 L 46.210938 26.539062 C 46.085938 29.648438 45.414062 32.25 43.9375 35.1875 C 40.9375 41.164062 35.585938 45.175781 29.210938 46.238281 C 24.488281 47.023438 20.1875 46.425781 16.0625 44.375 C 13.8125 43.261719 13.8125 43.3125 16.085938 43.300781 C 17.761719 43.289062 18.238281 43.238281 19.261719 42.960938 C 21.273438 42.4375 23.136719 41.585938 24.476562 40.574219 L 24.898438 40.273438 L 24.289062 40.1875 C 23.398438 40.074219 22.148438 39.664062 21.375 39.210938 C 20.449219 38.6875 19.148438 37.351562 18.675781 36.4375 C 17.976562 35.113281 17.925781 35.1875 19.476562 35.1875 C 21.300781 35.1875 21.550781 35.0625 20.5 34.710938 C 20.050781 34.5625 19.414062 34.273438 19.0625 34.074219 C 18.1875 33.5625 16.886719 32.199219 16.398438 31.289062 C 15.960938 30.460938 15.5 28.851562 15.5 28.148438 C 15.5 27.789062 15.539062 27.738281 15.726562 27.824219 C 16.335938 28.085938 17.625 28.476562 18.136719 28.539062 L 18.699219 28.613281 L 17.75 27.648438 C 16.238281 26.113281 15.574219 24.488281 15.585938 22.375 C 15.601562 21.210938 15.738281 20.539062 16.199219 19.5 L 16.511719 18.8125 L 18.101562 20.375 C 21.085938 23.324219 24.664062 25.261719 28.5625 26.050781 C 29.550781 26.25 31.601562 26.488281 31.675781 26.414062 C 31.699219 26.386719 31.664062 26.074219 31.601562 25.710938 C 31.375 24.363281 31.789062 22.375 32.574219 21.039062 C 33.601562 19.273438 35.738281 17.8125 37.710938 17.5 C 38.761719 17.335938 40.175781 17.476562 41.226562 17.824219 Z M 41.226562 17.824219 "/>
</g>
</svg>
