<?xml version="1.0" encoding="UTF-8"?>
<svg xmlns="http://www.w3.org/2000/svg" xmlns:xlink="http://www.w3.org/1999/xlink" width="700px" height="700px" viewBox="0 0 700 700" version="1.1">
<g id="surface1">
<path style=" stroke:none;fill-rule:nonzero;fill:rgb(52.156863%,37.647059%,87.843137%);fill-opacity:1;" d="M 392.789062 458.304688 C 392.179688 458.332031 391.570312 458.386719 390.960938 458.386719 C 368.519531 458.390625 346.078125 458.386719 323.640625 458.386719 C 323.089844 458.386719 322.539062 458.386719 321.746094 458.386719 C 321.882812 457.796875 321.929688 457.328125 322.097656 456.914062 C 329.101562 439.65625 336.113281 422.402344 343.125 405.148438 C 348.882812 390.976562 354.636719 376.800781 360.390625 362.628906 C 366.105469 348.558594 371.820312 334.488281 377.539062 320.417969 C 383.175781 306.554688 388.816406 292.695312 394.453125 278.832031 C 400.234375 264.609375 406.007812 250.382812 411.789062 236.160156 C 412.664062 234.003906 413.5625 231.855469 414.4375 229.695312 C 414.640625 229.195312 414.785156 228.667969 415.023438 227.964844 C 371.027344 210.535156 327.113281 193.136719 282.929688 175.632812 C 283.449219 175.175781 283.683594 174.882812 283.988281 174.722656 C 288.0625 172.582031 292.148438 170.460938 296.230469 168.339844 C 306.222656 163.148438 316.210938 157.953125 326.203125 152.769531 C 332.703125 149.398438 339.214844 146.050781 345.710938 142.675781 C 355.261719 137.71875 364.796875 132.742188 374.34375 127.78125 C 378.96875 125.375 383.609375 122.996094 388.238281 120.597656 C 398.277344 115.382812 408.316406 110.160156 418.355469 104.953125 C 423.328125 102.371094 428.316406 99.816406 433.285156 97.234375 C 441.457031 92.992188 449.621094 88.734375 457.789062 84.488281 C 457.980469 84.386719 458.203125 84.339844 458.617188 84.328125 C 464.597656 92.28125 470.375 100.160156 476.140625 108.050781 C 499.230469 139.664062 522.320312 171.277344 545.410156 202.886719 C 557.265625 219.117188 569.125 235.347656 580.980469 251.582031 C 581.328125 252.058594 581.640625 252.5625 581.996094 253.097656 C 578.128906 257.730469 574.359375 262.246094 570.589844 266.765625 C 566.785156 271.328125 562.984375 275.894531 559.175781 280.457031 C 555.40625 284.980469 551.628906 289.492188 547.867188 294.023438 C 544.089844 298.570312 540.246094 303.058594 536.421875 307.792969 C 547.109375 313.140625 557.558594 318.371094 568.269531 323.730469 C 567.605469 324.28125 567.207031 324.636719 566.78125 324.960938 C 560.480469 329.792969 554.175781 334.621094 547.871094 339.449219 C 498.707031 377.082031 449.539062 414.714844 400.378906 452.355469 C 397.828125 454.308594 395.316406 456.320312 392.789062 458.304688 Z M 392.789062 458.304688 "/>
<path style=" stroke:none;fill-rule:nonzero;fill:rgb(52.156863%,37.647059%,87.843137%);fill-opacity:1;" d="M 283.175781 489.359375 C 282.511719 489.835938 282.320312 489.363281 282.140625 488.851562 C 281.464844 486.917969 280.785156 484.980469 280.101562 483.046875 C 275.710938 470.609375 271.304688 458.179688 266.921875 445.738281 C 263.3125 435.492188 259.742188 425.230469 256.136719 414.984375 C 252.234375 403.902344 248.300781 392.832031 244.394531 381.75 C 241.167969 372.601562 237.96875 363.449219 234.746094 354.300781 C 231.914062 346.25 229.046875 338.207031 226.246094 330.144531 C 225.820312 328.925781 225.289062 328.296875 223.863281 328.152344 C 219.136719 327.667969 214.425781 326.988281 209.710938 326.375 C 203.019531 325.507812 196.332031 324.621094 189.636719 323.765625 C 184.152344 323.0625 178.660156 322.40625 173.175781 321.699219 C 165.660156 320.734375 158.148438 319.734375 150.636719 318.765625 C 146.90625 318.285156 143.171875 317.84375 139.4375 317.378906 C 138.507812 317.261719 137.582031 317.113281 136.519531 316.964844 C 126.667969 297.265625 116.796875 277.523438 106.824219 257.582031 C 107.925781 256.480469 109.03125 255.335938 110.179688 254.234375 C 112.0625 252.433594 113.988281 250.675781 115.863281 248.867188 C 119.855469 245.011719 123.820312 241.125 127.808594 237.269531 C 134.03125 231.253906 140.269531 225.25 146.5 219.242188 C 149.375 216.46875 152.253906 213.699219 155.140625 210.9375 C 160.226562 206.0625 165.324219 201.195312 170.417969 196.332031 C 170.574219 196.183594 170.785156 196.09375 171.199219 196.015625 C 172.683594 196.488281 173.933594 196.941406 175.199219 197.355469 C 203.601562 206.691406 232.011719 216.019531 260.417969 225.351562 C 272.011719 229.160156 283.605469 232.964844 295.199219 236.777344 C 311.21875 242.042969 327.238281 247.3125 343.257812 252.589844 C 343.660156 252.722656 344.035156 252.933594 344.441406 253.117188 C 344.289062 253.773438 344.175781 254.3125 344.039062 254.84375 C 338.15625 277.5 332.273438 300.160156 326.382812 322.8125 C 319.875 347.832031 313.359375 372.84375 306.851562 397.863281 C 299.972656 424.328125 293.09375 450.796875 286.222656 477.265625 C 285.179688 481.289062 284.1875 485.328125 283.175781 489.359375 Z M 283.175781 489.359375 "/>
<path style=" stroke:none;fill-rule:nonzero;fill:rgb(52.156863%,37.647059%,87.843137%);fill-opacity:1;" d="M 455.582031 36.167969 C 450.601562 37.441406 445.628906 38.734375 440.644531 39.976562 C 429.273438 42.816406 417.898438 45.632812 406.527344 48.460938 C 402.777344 49.398438 399.027344 50.347656 395.019531 51.324219 C 392.230469 51.976562 389.703125 52.625 387.164062 53.199219 C 386.363281 53.382812 385.964844 53.730469 385.746094 54.5625 C 384.855469 57.941406 383.859375 61.289062 382.929688 64.660156 C 381.554688 69.628906 380.207031 74.605469 378.84375 79.582031 C 376.0625 80.816406 373.292969 82.082031 370.496094 83.285156 C 350.128906 92.039062 329.753906 100.78125 309.382812 109.527344 C 294.257812 116.023438 279.132812 122.519531 264.007812 129.015625 C 245.167969 137.109375 226.328125 145.207031 207.484375 153.300781 C 194.753906 158.769531 182.023438 164.234375 169.289062 169.699219 C 163.535156 172.167969 157.777344 174.636719 152.019531 177.101562 C 151.539062 177.308594 151.035156 177.464844 150.339844 177.714844 C 150.371094 177.144531 150.371094 176.839844 150.402344 176.539062 C 150.894531 171.640625 151.371094 166.742188 151.886719 161.847656 C 152.492188 156.128906 153.144531 150.417969 153.75 144.699219 C 154.148438 140.957031 154.488281 137.210938 154.886719 133.472656 C 155.484375 127.808594 156.121094 122.148438 156.726562 116.488281 C 157.085938 113.132812 157.429688 109.777344 157.769531 106.421875 C 158.257812 101.632812 158.746094 96.847656 159.210938 92.058594 C 159.292969 91.203125 159.726562 90.671875 160.386719 90.171875 C 167.515625 84.792969 174.628906 79.394531 181.746094 74 C 195.9375 63.246094 210.125 52.492188 224.320312 41.746094 C 224.804688 41.382812 225.335938 41.085938 226.058594 40.832031 C 265.109375 48.894531 303.945312 56.890625 342.78125 64.882812 C 343 64.925781 343.21875 64.960938 343.4375 64.988281 C 343.546875 65 343.660156 64.992188 343.769531 64.980469 C 343.820312 64.976562 343.875 64.945312 343.921875 64.917969 C 343.964844 64.894531 344.003906 64.855469 344.203125 64.699219 C 343.1875 62.492188 342.152344 60.238281 341.117188 57.984375 C 339.257812 53.605469 337.410156 49.21875 335.535156 44.847656 C 332.785156 38.4375 330.011719 32.035156 327.269531 25.625 C 327.054688 25.121094 326.464844 24.609375 327.324219 23.960938 C 330.070312 24.179688 332.550781 24.433594 335.035156 24.660156 C 340.558594 25.15625 346.082031 25.628906 351.605469 26.125 C 358.507812 26.746094 365.40625 27.382812 372.308594 28.007812 C 377.664062 28.492188 383.023438 28.964844 388.378906 29.449219 C 395.335938 30.078125 402.292969 30.710938 409.25 31.339844 C 414.605469 31.824219 419.960938 32.304688 425.320312 32.789062 C 431.0625 33.304688 436.804688 33.828125 442.546875 34.34375 C 446.464844 34.699219 450.386719 35.042969 454.308594 35.402344 C 454.835938 35.449219 455.46875 35.394531 455.582031 36.167969 Z M 455.582031 36.167969 "/>
<path style=" stroke:none;fill-rule:nonzero;fill:rgb(98.039216%,74.117647%,0.392157%);fill-opacity:1;" d="M 392.925781 458.3125 C 395.316406 456.320312 397.828125 454.308594 400.378906 452.355469 C 449.539062 414.714844 498.707031 377.082031 547.871094 339.449219 C 554.175781 334.621094 560.480469 329.792969 566.78125 324.960938 C 567.207031 324.636719 567.605469 324.28125 568.269531 323.730469 C 557.558594 318.371094 547.109375 313.140625 536.421875 307.792969 C 540.246094 303.058594 544.089844 298.570312 547.867188 294.023438 C 551.628906 289.492188 555.40625 284.980469 559.175781 280.457031 C 562.984375 275.894531 566.785156 271.328125 570.589844 266.765625 C 574.359375 262.246094 578.128906 257.730469 581.996094 253.097656 C 581.640625 252.5625 581.328125 252.058594 580.980469 251.582031 C 569.125 235.347656 557.265625 219.117188 545.410156 202.886719 C 522.320312 171.277344 499.230469 139.664062 476.140625 108.050781 C 470.375 100.160156 464.597656 92.28125 458.734375 84.308594 C 462.289062 82.796875 465.9375 81.367188 469.734375 79.882812 C 510.90625 136.242188 552.003906 192.507812 593.175781 248.871094 C 578.007812 267.058594 562.863281 285.214844 547.5625 303.566406 C 558.820312 309.199219 569.945312 314.765625 581.222656 320.40625 C 580.898438 320.722656 580.671875 320.992188 580.398438 321.203125 C 563.730469 334.167969 547.054688 347.117188 530.390625 360.085938 C 513.679688 373.085938 496.984375 386.105469 480.273438 399.105469 C 468.945312 407.917969 457.59375 416.707031 446.261719 425.519531 C 433.96875 435.078125 421.6875 444.652344 409.386719 454.203125 C 408.882812 454.59375 408.261719 454.921875 407.644531 455.066406 C 402.789062 456.179688 397.925781 457.238281 392.925781 458.3125 Z M 392.925781 458.3125 "/>
<path style=" stroke:none;fill-rule:nonzero;fill:rgb(98.039216%,74.117647%,0.392157%);fill-opacity:1;" d="M 283.296875 489.355469 C 284.1875 485.328125 285.179688 481.289062 286.222656 477.265625 C 293.09375 450.796875 299.972656 424.328125 306.851562 397.863281 C 313.359375 372.84375 319.875 347.832031 326.382812 322.8125 C 332.273438 300.160156 338.15625 277.5 344.039062 254.84375 C 344.175781 254.3125 344.289062 253.773438 344.441406 253.117188 C 344.035156 252.933594 343.660156 252.722656 343.257812 252.589844 C 327.238281 247.3125 311.21875 242.042969 295.199219 236.777344 C 283.605469 232.964844 272.011719 229.160156 260.417969 225.351562 C 232.011719 216.019531 203.601562 206.691406 175.199219 197.355469 C 173.933594 196.941406 172.683594 196.488281 171.316406 196 C 173.933594 194.882812 176.707031 193.917969 179.371094 192.714844 C 181.210938 191.882812 182.855469 191.9375 184.746094 192.585938 C 191.921875 195.050781 199.152344 197.375 206.359375 199.75 C 218.414062 203.71875 230.464844 207.6875 242.519531 211.652344 C 254.203125 215.496094 265.890625 219.332031 277.578125 223.167969 C 289.371094 227.039062 301.164062 230.90625 312.957031 234.777344 C 320.695312 237.316406 328.433594 239.863281 336.171875 242.402344 C 342.066406 244.339844 347.960938 246.273438 353.855469 248.210938 C 354.375 248.382812 354.882812 248.585938 355.550781 248.832031 C 355.269531 250.058594 355.027344 251.234375 354.726562 252.394531 C 351.859375 263.4375 348.984375 274.472656 346.109375 285.511719 C 342.675781 298.695312 339.230469 311.875 335.804688 325.058594 C 333.339844 334.546875 330.90625 344.039062 328.4375 353.527344 C 324.953125 366.921875 321.4375 380.3125 317.957031 393.710938 C 314.097656 408.558594 310.273438 423.414062 306.425781 438.261719 C 302.78125 452.304688 299.121094 466.34375 295.46875 480.382812 C 295.132812 481.671875 294.777344 482.949219 294.472656 484.246094 C 294.320312 484.902344 293.984375 485.242188 293.332031 485.488281 C 290.015625 486.742188 286.722656 488.054688 283.296875 489.355469 Z M 283.296875 489.355469 "/>
<path style=" stroke:none;fill-rule:nonzero;fill:rgb(51.764706%,37.647059%,87.45098%);fill-opacity:1;" d="M 380.472656 587.382812 C 384.324219 587.878906 388.015625 587.925781 391.679688 587.046875 C 398.179688 585.496094 401.398438 581.21875 402.175781 574.867188 C 402.386719 573.140625 402.398438 571.390625 402.503906 569.652344 C 402.386719 569.613281 402.273438 569.570312 402.160156 569.53125 C 401.871094 569.824219 401.574219 570.109375 401.296875 570.410156 C 397.230469 574.878906 392.363281 577.839844 386.21875 578.324219 C 378.988281 578.894531 372.324219 577.414062 366.589844 572.710938 C 362.324219 569.21875 359.527344 564.761719 358.15625 559.460938 C 356.523438 553.152344 356.515625 546.796875 358.683594 540.628906 C 362.0625 531.007812 368.878906 525.28125 378.976562 523.613281 C 384.003906 522.78125 388.925781 523.1875 393.625 525.304688 C 396.285156 526.503906 398.574219 528.242188 400.660156 530.261719 C 401.054688 530.648438 401.394531 531.09375 401.90625 531.679688 C 402.460938 530.277344 402.144531 529.078125 402.203125 527.917969 C 402.261719 526.769531 402.214844 525.613281 402.214844 524.371094 C 407.808594 524.371094 413.226562 524.371094 418.761719 524.371094 C 418.800781 524.792969 418.878906 525.214844 418.878906 525.636719 C 418.882812 541.523438 418.929688 557.410156 418.855469 573.296875 C 418.832031 577.925781 417.886719 582.441406 415.992188 586.695312 C 413.5 592.296875 409.269531 596.109375 403.605469 598.367188 C 399.230469 600.113281 394.640625 600.855469 389.976562 601.03125 C 384.257812 601.246094 378.5625 601.03125 372.949219 599.710938 C 368.511719 598.667969 364.21875 597.246094 360.019531 594.929688 C 361.925781 590.71875 363.8125 586.5625 365.761719 582.261719 C 370.394531 584.804688 375.144531 586.71875 380.472656 587.382812 M 378.683594 561.324219 C 381.761719 563.726562 385.273438 564.617188 389.128906 564.398438 C 393.339844 564.15625 396.890625 562.546875 399.53125 559.253906 C 401.929688 556.261719 402.761719 552.796875 402.234375 548.96875 C 401.664062 544.796875 399.667969 541.574219 396.066406 539.410156 C 391.855469 536.875 387.382812 536.640625 382.78125 538.148438 C 380.113281 539.023438 377.984375 540.671875 376.347656 542.933594 C 372.546875 548.199219 373.039062 556.527344 378.683594 561.324219 Z M 378.683594 561.324219 "/>
<path style=" stroke:none;fill-rule:nonzero;fill:rgb(52.156863%,37.647059%,87.45098%);fill-opacity:1;" d="M 139.4375 577.332031 C 139.4375 553.617188 139.4375 530.070312 139.4375 506.414062 C 139.945312 506.363281 140.367188 506.285156 140.789062 506.28125 C 150.84375 506.277344 160.898438 506.242188 170.953125 506.292969 C 176.035156 506.316406 180.988281 507.074219 185.679688 509.195312 C 193.164062 512.585938 197.898438 518.269531 199.71875 526.25 C 200.976562 531.746094 200.796875 537.269531 198.945312 542.636719 C 196.710938 549.113281 192.300781 553.6875 186.207031 556.671875 C 181.972656 558.742188 177.46875 559.882812 172.757812 560.039062 C 168.046875 560.195312 163.332031 560.207031 158.617188 560.277344 C 158.011719 560.285156 157.402344 560.277344 156.585938 560.277344 C 156.585938 567.949219 156.585938 575.523438 156.585938 583.1875 C 150.792969 583.1875 145.214844 583.1875 139.4375 583.1875 C 139.4375 581.242188 139.4375 579.371094 139.4375 577.332031 M 164.992188 521.722656 C 162.234375 521.722656 159.476562 521.722656 156.753906 521.722656 C 156.398438 523.890625 156.484375 543.8125 156.828125 544.992188 C 157.089844 545.011719 157.363281 545.050781 157.640625 545.054688 C 161.917969 545.058594 166.195312 545.148438 170.46875 545.011719 C 172.210938 544.953125 174.003906 544.59375 175.660156 544.035156 C 184.273438 541.121094 184.78125 531.125 180.984375 526.25 C 178.90625 523.582031 176.015625 522.359375 172.796875 522 C 170.328125 521.722656 167.820312 521.800781 164.992188 521.722656 Z M 164.992188 521.722656 "/>
<path style=" stroke:none;fill-rule:nonzero;fill:rgb(51.764706%,37.254902%,87.45098%);fill-opacity:1;" d="M 236.109375 661.34375 C 237.566406 668.703125 241.085938 674.484375 247.664062 678.128906 C 251.25 680.117188 255.125 680.851562 259.195312 680.699219 C 265.585938 680.457031 270.9375 677.769531 275.703125 673.699219 C 276.453125 673.058594 277.203125 672.414062 277.84375 671.863281 C 281.476562 675.503906 285.035156 679.074219 288.710938 682.757812 C 288.535156 682.996094 288.296875 683.425781 287.964844 683.761719 C 282.207031 689.628906 275.558594 693.988281 267.34375 695.507812 C 257.507812 697.328125 247.882812 696.816406 238.84375 692.105469 C 227.996094 686.449219 221.445312 677.46875 218.765625 665.578125 C 217.902344 661.753906 217.644531 657.878906 217.917969 654.011719 C 218.582031 644.476562 221.898438 636.023438 228.566406 629.003906 C 235.355469 621.855469 243.71875 617.996094 253.457031 617.027344 C 261.003906 616.277344 268.382812 617.070312 275.472656 619.878906 C 280.234375 621.761719 284.289062 624.738281 287.96875 628.25 C 288.082031 628.359375 288.144531 628.519531 288.332031 628.816406 C 284.78125 632.910156 281.210938 637.027344 277.609375 641.183594 C 275.847656 639.835938 274.261719 638.550781 272.601562 637.367188 C 267.425781 633.6875 261.664062 631.984375 255.335938 632.707031 C 248.050781 633.539062 242.636719 637.390625 238.996094 643.667969 C 235.835938 649.109375 235.152344 655.039062 236.109375 661.34375 Z M 236.109375 661.34375 "/>
<path style=" stroke:none;fill-rule:nonzero;fill:rgb(51.764706%,37.254902%,87.45098%);fill-opacity:1;" d="M 305.882812 678.332031 C 305.890625 657.277344 305.894531 636.390625 305.90625 615.503906 C 305.90625 615.402344 305.972656 615.300781 306.003906 615.195312 C 307.191406 614.886719 320.4375 614.796875 322.707031 615.101562 C 322.707031 624.613281 322.707031 634.148438 322.707031 643.679688 C 322.800781 643.734375 322.898438 643.789062 322.996094 643.839844 C 323.304688 643.519531 323.628906 643.207031 323.921875 642.875 C 327.058594 639.289062 330.660156 636.371094 335.484375 635.5 C 341.972656 634.328125 348.078125 635.15625 353.335938 639.546875 C 355.601562 641.441406 357.144531 643.855469 358.195312 646.585938 C 359.324219 649.503906 359.894531 652.535156 359.890625 655.679688 C 359.875 668.070312 359.882812 680.457031 359.882812 692.847656 C 359.882812 693.503906 359.882812 694.164062 359.882812 694.9375 C 354.304688 694.9375 348.835938 694.9375 343.152344 694.9375 C 343.136719 694.34375 343.105469 693.703125 343.105469 693.0625 C 343.101562 682.449219 343.132812 671.839844 343.085938 661.230469 C 343.074219 658.105469 342.300781 655.210938 339.980469 652.886719 C 338.621094 651.527344 336.992188 650.792969 335.140625 650.527344 C 331.949219 650.066406 328.953125 650.492188 326.382812 652.648438 C 324.496094 654.230469 323.574219 656.34375 323.171875 658.683594 C 322.921875 660.152344 322.792969 661.65625 322.789062 663.144531 C 322.757812 673.085938 322.773438 683.03125 322.773438 692.976562 C 322.773438 693.582031 322.773438 694.183594 322.773438 694.753906 C 321.507812 695.113281 308.625 695.230469 305.882812 694.90625 C 305.882812 689.457031 305.882812 683.980469 305.882812 678.332031 Z M 305.882812 678.332031 "/>
<path style=" stroke:none;fill-rule:nonzero;fill:rgb(51.764706%,37.254902%,87.45098%);fill-opacity:1;" d="M 477.382812 525.40625 C 486.71875 529.5625 491.394531 537.101562 493.445312 546.609375 C 494.363281 550.871094 494.371094 555.171875 494.058594 559.667969 C 480.453125 559.667969 466.9375 559.667969 453.210938 559.667969 C 453.695312 562.324219 454.714844 564.484375 456.296875 566.363281 C 458.96875 569.539062 462.515625 570.847656 466.566406 571.058594 C 472.085938 571.351562 476.769531 569.433594 480.8125 565.765625 C 481.058594 565.546875 481.308594 565.332031 481.683594 565 C 484.882812 567.824219 488.058594 570.632812 491.277344 573.472656 C 490.496094 574.980469 489.324219 576.007812 488.191406 577.03125 C 483.429688 581.316406 477.839844 583.742188 471.457031 584.402344 C 465.515625 585.015625 459.714844 584.523438 454.195312 582.140625 C 444.199219 577.832031 438.492188 570.136719 436.8125 559.480469 C 435.789062 553.007812 436.394531 546.632812 439.125 540.605469 C 443.410156 531.148438 450.546875 525.242188 460.9375 523.617188 C 466.519531 522.742188 471.980469 523.28125 477.382812 525.40625 M 457.535156 539.867188 C 454.9375 542.328125 453.625 545.410156 453.03125 548.964844 C 461.332031 548.964844 469.511719 548.964844 477.761719 548.964844 C 477.621094 547.144531 477.136719 545.503906 476.421875 543.953125 C 474.296875 539.359375 470.664062 536.859375 465.605469 536.761719 C 462.65625 536.703125 459.945312 537.667969 457.535156 539.867188 Z M 457.535156 539.867188 "/>
<path style=" stroke:none;fill-rule:nonzero;fill:rgb(51.764706%,37.254902%,87.058824%);fill-opacity:1;" d="M 562.773438 555 C 562.773438 564.4375 562.773438 573.707031 562.773438 582.949219 C 561.574219 583.351562 549.289062 583.472656 546.457031 583.109375 C 546.457031 581.308594 546.457031 579.464844 546.457031 577.386719 C 546.027344 577.671875 545.832031 577.761719 545.691406 577.902344 C 541.105469 582.472656 535.449219 584.308594 529.113281 584.386719 C 524.707031 584.441406 520.480469 583.640625 516.679688 581.34375 C 510.554688 577.644531 508.167969 571.972656 508.464844 565.015625 C 508.644531 560.851562 509.863281 557.066406 512.734375 553.933594 C 514.722656 551.765625 517.152344 550.269531 519.894531 549.242188 C 523.355469 547.945312 526.945312 547.382812 530.625 547.269531 C 535.765625 547.109375 540.796875 547.671875 545.695312 549.304688 C 545.898438 549.371094 546.125 549.367188 546.335938 549.394531 C 547.089844 546.054688 545.421875 540.753906 540.058594 538.976562 C 537.261719 538.050781 534.394531 537.898438 531.519531 538.097656 C 528.035156 538.335938 524.605469 538.984375 521.273438 540.066406 C 520.121094 540.4375 518.980469 540.839844 517.714844 541.265625 C 516.300781 536.996094 514.914062 532.804688 513.503906 528.539062 C 514.839844 527.636719 516.320312 527.191406 517.753906 526.675781 C 521.996094 525.144531 526.363281 524.253906 530.871094 523.898438 C 535.8125 523.507812 540.714844 523.503906 545.5625 524.621094 C 549.332031 525.488281 552.804688 526.96875 555.738281 529.621094 C 558.632812 532.242188 560.425781 535.480469 561.5 539.160156 C 562.378906 542.148438 562.753906 545.222656 562.769531 548.335938 C 562.785156 550.503906 562.773438 552.667969 562.773438 555 M 525.878906 569.386719 C 527.15625 571.050781 528.878906 571.949219 530.898438 572.402344 C 533.449219 572.976562 535.972656 572.785156 538.460938 572.132812 C 540.980469 571.472656 543.1875 570.234375 544.851562 568.164062 C 546.769531 565.785156 546.9375 562.980469 546.726562 560.117188 C 546.703125 559.800781 546.25 559.382812 545.90625 559.25 C 540.925781 557.3125 535.816406 556.65625 530.621094 558.171875 C 525.4375 559.6875 523.363281 564.527344 525.878906 569.386719 Z M 525.878906 569.386719 "/>
<path style=" stroke:none;fill-rule:nonzero;fill:rgb(51.764706%,37.254902%,87.45098%);fill-opacity:1;" d="M 211.882812 567.257812 C 211.800781 564.761719 212.027344 562.460938 212.683594 560.203125 C 214.367188 554.421875 218.410156 550.996094 223.867188 549.019531 C 227.015625 547.878906 230.300781 547.398438 233.640625 547.277344 C 238.886719 547.089844 244.042969 547.617188 249.054688 549.273438 C 249.308594 549.359375 249.589844 549.367188 249.863281 549.414062 C 250.285156 544.441406 248.121094 540.425781 243.035156 538.839844 C 240.203125 537.953125 237.273438 537.953125 234.316406 538.171875 C 229.808594 538.5 225.515625 539.691406 221.132812 541.289062 C 219.722656 536.992188 218.34375 532.796875 216.921875 528.476562 C 218.925781 527.410156 221 526.671875 223.101562 526.011719 C 227.9375 524.492188 232.902344 523.796875 237.976562 523.695312 C 242.097656 523.613281 246.160156 523.832031 250.15625 524.910156 C 258.738281 527.222656 263.804688 532.835938 265.46875 541.484375 C 265.957031 544.023438 266.167969 546.652344 266.183594 549.238281 C 266.261719 559.902344 266.21875 570.566406 266.21875 581.230469 C 266.21875 581.835938 266.21875 582.441406 266.21875 583.164062 C 260.792969 583.164062 255.488281 583.164062 249.964844 583.164062 C 249.964844 581.363281 249.964844 579.515625 249.964844 577.316406 C 249.214844 577.921875 248.742188 578.265625 248.316406 578.65625 C 243.960938 582.636719 238.710938 584.238281 232.9375 584.382812 C 228.308594 584.5 223.875 583.671875 219.875 581.210938 C 215.460938 578.492188 212.894531 574.511719 212.113281 569.382812 C 212.015625 568.730469 211.957031 568.070312 211.882812 567.257812 M 244.898438 570.933594 C 249.179688 568.667969 250.84375 564.652344 250.046875 559.574219 C 246.726562 557.871094 241.847656 557.15625 238.109375 557.414062 C 235.84375 557.570312 233.625 558.03125 231.632812 559.261719 C 228.914062 560.941406 227.917969 563.464844 228.265625 566.492188 C 228.59375 569.355469 230.355469 571.183594 233.078125 572.039062 C 237.070312 573.292969 240.933594 572.851562 244.898438 570.933594 Z M 244.898438 570.933594 "/>
<path style=" stroke:none;fill-rule:nonzero;fill:rgb(51.764706%,37.254902%,87.45098%);fill-opacity:1;" d="M 430.550781 660.339844 C 430.550781 671.9375 430.550781 683.371094 430.550781 695.027344 C 425.113281 695.085938 419.765625 695.046875 414.242188 695.050781 C 414.242188 693.109375 414.242188 691.3125 414.242188 689.183594 C 413.367188 689.910156 412.75 690.417969 412.136719 690.9375 C 408.367188 694.136719 403.957031 695.652344 399.066406 696.085938 C 395.824219 696.371094 392.652344 696.117188 389.542969 695.277344 C 385.058594 694.0625 381.332031 691.695312 378.8125 687.671875 C 376.578125 684.097656 375.945312 680.15625 376.304688 676.03125 C 376.523438 673.480469 377.089844 671.003906 378.359375 668.734375 C 380.585938 664.746094 384.0625 662.292969 388.277344 660.828125 C 393.332031 659.070312 398.546875 658.808594 403.851562 659.210938 C 407.304688 659.476562 410.632812 660.207031 413.914062 661.257812 C 414.011719 661.289062 414.128906 661.246094 414.238281 661.234375 C 414.703125 656.996094 412.75 653.25 409.738281 651.65625 C 407.738281 650.601562 405.625 650.046875 403.375 649.945312 C 398.109375 649.714844 392.988281 650.457031 388.023438 652.246094 C 387.25 652.527344 386.453125 652.75 385.472656 653.0625 C 384.070312 648.761719 382.683594 644.523438 381.277344 640.226562 C 384.226562 638.828125 387.152344 637.816406 390.160156 637.054688 C 393.714844 636.152344 397.332031 635.8125 400.992188 635.546875 C 405.070312 635.25 409.070312 635.542969 413.03125 636.351562 C 417.453125 637.257812 421.421875 639.117188 424.59375 642.492188 C 427.058594 645.113281 428.542969 648.214844 429.464844 651.632812 C 430.222656 654.425781 430.527344 657.285156 430.550781 660.339844 M 409.105469 682.820312 C 413.582031 680.453125 415.246094 676.492188 414.335938 671.292969 C 409.890625 669.332031 405.207031 668.792969 400.398438 669.550781 C 398.953125 669.777344 397.480469 670.296875 396.1875 670.992188 C 391.648438 673.441406 391.226562 679.953125 395.355469 682.808594 C 396.511719 683.609375 397.792969 684.113281 399.1875 684.324219 C 402.5625 684.839844 405.792969 684.375 409.105469 682.820312 Z M 409.105469 682.820312 "/>
<path style=" stroke:none;fill-rule:nonzero;fill:rgb(51.764706%,37.254902%,87.058824%);fill-opacity:1;" d="M 309.640625 539.035156 C 304.976562 540.542969 302.992188 544.371094 302.796875 549.320312 C 302.675781 552.425781 302.773438 555.542969 302.773438 558.652344 C 302.773438 566.207031 302.773438 573.761719 302.773438 581.316406 C 302.773438 581.910156 302.773438 582.507812 302.773438 583.1875 C 297.105469 583.1875 291.628906 583.1875 286.15625 583.1875 C 285.816406 582.007812 285.722656 526.578125 286.0625 524.375 C 291.566406 524.375 297.082031 524.375 302.785156 524.375 C 302.785156 526.925781 302.785156 529.382812 302.785156 532.210938 C 303.492188 531.464844 303.953125 531.023438 304.363281 530.539062 C 309.15625 524.882812 315.269531 522.617188 322.585938 523.371094 C 328.625 523.992188 333.503906 526.5625 336.695312 531.863281 C 338.925781 535.5625 339.847656 539.671875 339.863281 543.945312 C 339.917969 556.609375 339.882812 569.273438 339.878906 581.9375 C 339.878906 582.316406 339.828125 582.695312 339.789062 583.175781 C 334.269531 583.175781 328.800781 583.175781 323.105469 583.175781 C 323.105469 582.5 323.105469 581.851562 323.105469 581.207031 C 323.105469 570.875 323.121094 560.542969 323.089844 550.210938 C 323.082031 548.160156 322.761719 546.144531 321.988281 544.207031 C 320.695312 540.960938 318.285156 539.144531 314.886719 538.695312 C 313.1875 538.46875 311.449219 538.457031 309.640625 539.035156 Z M 309.640625 539.035156 "/>
<path style=" stroke:none;fill-rule:nonzero;fill:rgb(51.764706%,37.647059%,87.45098%);fill-opacity:1;" d="M 468.390625 621.058594 C 469.320312 621.089844 469.207031 621.671875 469.210938 622.152344 C 469.222656 624.152344 469.214844 626.152344 469.21875 628.152344 C 469.21875 630.699219 469.21875 633.246094 469.21875 636.023438 C 473.839844 636.101562 478.359375 636.015625 482.988281 636.074219 C 482.988281 640.933594 482.988281 645.671875 482.988281 650.613281 C 478.414062 650.613281 473.894531 650.613281 469.21875 650.613281 C 469.21875 651.351562 469.21875 651.894531 469.21875 652.4375 C 469.21875 659.878906 469.210938 667.320312 469.226562 674.761719 C 469.226562 675.53125 469.378906 676.300781 469.4375 677.070312 C 469.617188 679.460938 471.105469 681.09375 474.132812 681.261719 C 476.664062 681.402344 479.082031 680.808594 481.40625 679.832031 C 481.804688 679.664062 482.195312 679.484375 482.757812 679.234375 C 482.757812 683.804688 482.757812 688.207031 482.757812 692.738281 C 480.644531 694.113281 478.226562 695.078125 475.664062 695.539062 C 471.492188 696.292969 467.304688 696.382812 463.125 695.390625 C 457.613281 694.078125 454.414062 690.511719 453.21875 685.136719 C 452.71875 682.886719 452.496094 680.535156 452.472656 678.222656 C 452.386719 669.671875 452.4375 661.117188 452.4375 652.566406 C 452.4375 651.972656 452.4375 651.375 452.4375 650.625 C 450.054688 650.625 447.859375 650.625 445.550781 650.625 C 445.550781 645.730469 445.550781 640.988281 445.550781 636.097656 C 447.800781 636.097656 450 636.097656 452.410156 636.097656 C 452.410156 631.046875 452.410156 626.136719 452.410156 621.054688 C 457.824219 621.054688 463.027344 621.054688 468.390625 621.058594 Z M 468.390625 621.058594 "/>
<path style=" stroke:none;fill-rule:nonzero;fill:rgb(97.647059%,74.117647%,0.784314%);fill-opacity:1;" d="M 340.984375 57.976562 C 342.152344 60.238281 343.1875 62.492188 344.203125 64.699219 C 344.003906 64.855469 343.964844 64.894531 343.921875 64.917969 C 343.875 64.945312 343.820312 64.976562 343.769531 64.980469 C 343.660156 64.992188 343.546875 65 343.4375 64.988281 C 343.21875 64.960938 343 64.925781 342.78125 64.882812 C 303.945312 56.890625 265.109375 48.894531 226.167969 40.828125 C 229.46875 39.417969 232.863281 38.066406 236.285156 36.78125 C 236.761719 36.601562 237.386719 36.679688 237.914062 36.789062 C 251.902344 39.644531 265.890625 42.519531 279.875 45.394531 C 291.695312 47.828125 303.507812 50.269531 315.324219 52.707031 C 323.835938 54.460938 332.34375 56.214844 340.984375 57.976562 Z M 340.984375 57.976562 "/>
<path style=" stroke:none;fill-rule:nonzero;fill:rgb(97.647059%,73.72549%,0.784314%);fill-opacity:1;" d="M 455.703125 36.136719 C 455.46875 35.394531 454.835938 35.449219 454.308594 35.402344 C 450.386719 35.042969 446.464844 34.699219 442.546875 34.34375 C 436.804688 33.828125 431.0625 33.304688 425.320312 32.789062 C 419.960938 32.304688 414.605469 31.824219 409.25 31.339844 C 402.292969 30.710938 395.335938 30.078125 388.378906 29.449219 C 383.023438 28.964844 377.664062 28.492188 372.308594 28.007812 C 365.40625 27.382812 358.507812 26.746094 351.605469 26.125 C 346.082031 25.628906 340.558594 25.15625 335.035156 24.660156 C 332.550781 24.433594 330.070312 24.179688 327.453125 23.910156 C 331.15625 22.609375 334.964844 21.246094 338.84375 20.125 C 340.066406 19.769531 341.488281 19.976562 342.804688 20.082031 C 346.273438 20.359375 349.734375 20.71875 353.199219 21.054688 C 357.324219 21.449219 361.445312 21.863281 365.570312 22.242188 C 368.761719 22.535156 371.964844 22.761719 375.15625 23.054688 C 380.601562 23.554688 386.042969 24.09375 391.488281 24.589844 C 394.683594 24.882812 397.882812 25.097656 401.078125 25.390625 C 406.46875 25.882812 411.855469 26.414062 417.246094 26.910156 C 420.382812 27.199219 423.527344 27.429688 426.664062 27.714844 C 432.164062 28.21875 437.664062 28.757812 443.164062 29.257812 C 446.359375 29.546875 449.558594 29.773438 452.75 30.054688 C 457.367188 30.464844 461.980469 30.902344 466.601562 31.332031 C 466.757812 32.125 466.246094 32.199219 465.78125 32.371094 C 462.457031 33.609375 459.144531 34.859375 455.703125 36.136719 Z M 455.703125 36.136719 "/>
<path style=" stroke:none;fill-rule:nonzero;fill:rgb(97.647059%,74.117647%,0.784314%);fill-opacity:1;" d="M 378.960938 79.566406 C 380.207031 74.605469 381.554688 69.628906 382.929688 64.660156 C 383.859375 61.289062 384.855469 57.941406 385.746094 54.5625 C 385.964844 53.730469 386.363281 53.382812 387.164062 53.199219 C 389.703125 52.625 392.230469 51.976562 394.910156 51.359375 C 393.203125 58.8125 391.332031 66.257812 389.523438 73.71875 C 389.265625 74.785156 388.789062 75.425781 387.761719 75.84375 C 384.84375 77.027344 381.96875 78.308594 378.960938 79.566406 Z M 378.960938 79.566406 "/>
</g>
</svg>
