<svg width="700" height="700" xmlns="http://www.w3.org/2000/svg" xml:space="preserve" enable-background="new 0 0 768 682" version="1.1">

 <g>
  <title>Layer 1</title>
  <path id="svg_1" d="m457,683c-152.33334,0 -304.16667,0 -456,0c0,-227.33334 0,-454.66667 0,-682c256,0 512,0 768,0c0,227.33333 0,454.66666 0,682c-103.83331,0 -207.66669,0 -312,0m216.73261,-237.20261c-0.23713,-2.32104 -0.40754,-4.65115 -0.7223,-6.96164c-1.84558,-13.54971 -6.23944,-25.98678 -16.75695,-35.33923c-17.82929,-15.85419 -52.66382,-18.35858 -73.79254,-5.37717c-16.80903,10.32737 -23.80689,26.67109 -24.18976,45.21241c-0.79798,38.64563 -0.80432,77.33023 -0.021,115.97622c0.3797,18.73358 7.409,35.2865 24.46875,45.57319c12.4859,7.52874 26.38355,9.03271 40.57373,7.68334c28.62122,-2.72168 46.68512,-18.80194 49.18677,-47.38336c2.18707,-24.9884 1.12262,-50.2655 1.25116,-75.41626c0.00567,-1.10974 -2.40003,-3.18564 -3.70441,-3.20343c-16.33032,-0.2225 -32.66467,-0.13107 -48.99786,-0.16617c-2.61957,-0.00564 -4.00281,0.84992 -3.97644,3.76102c0.0935,10.33246 -0.08313,20.66947 0.19378,30.99536c0.03327,1.24146 2.02558,2.81897 3.46167,3.51502c1.21613,0.58941 2.94159,0.11474 4.44141,0.1344c10.30353,0.13488 9.02112,-1.39435 8.93646,9.04602c-0.07678,9.47552 -0.17443,18.98401 -1.0318,28.40796c-0.53973,5.93225 -4.50158,9.87902 -10.46252,11.40887c-13.00562,3.33771 -21.72821,-2.80707 -22.92096,-16.17047c-0.17743,-1.98773 -0.22333,-3.9928 -0.22412,-5.98981c-0.01318,-33.33325 -0.03266,-66.66656 0.02496,-99.99972c0.00598,-3.48417 0.1507,-7.03418 0.81964,-10.43793c1.60236,-8.15298 6.62781,-12.30826 14.92878,-12.85779c11.06603,-0.73254 17.62085,4.7656 18.62512,16.12952c0.4826,5.46185 0.34369,10.99212 0.24157,16.48687c-0.05749,3.09546 0.80799,4.573 4.21289,4.52631c10.49799,-0.14407 20.99976,-0.10953 31.49891,-0.01474c2.97412,0.02683 4.24835,-1.06186 4.14331,-4.09967c-0.16693,-4.82815 -0.11157,-9.664 -0.20825,-15.43912m-226.22754,-53.11407c-3.49982,0.00024 -7.01572,0.21078 -10.49515,-0.05548c-3.87335,-0.29639 -5.59091,0.93957 -6.16519,5.06173c-1.86133,13.36002 -4.17557,26.65681 -6.30411,39.97974c-8.90872,55.76163 -17.77292,111.53046 -26.80197,167.27259c-0.66736,4.11987 0.26983,5.34527 4.41232,5.24413c9.49365,-0.23187 18.99991,-0.2116 28.4946,-0.00158c3.50534,0.07745 5.07669,-0.89209 5.46536,-4.57788c0.73303,-6.9516 2.09326,-13.83527 2.91373,-20.78021c0.39471,-3.34101 1.83017,-4.52131 5.16333,-4.46985c9.99692,0.15429 19.99908,0.1488 29.99621,0.00103c3.25367,-0.04809 4.81568,0.92597 5.21442,4.36115c0.78693,6.77942 2.14139,13.49292 2.93451,20.27185c0.44736,3.82373 1.83606,5.36017 5.96399,5.22583c9.82223,-0.31952 19.66193,-0.10266 29.49457,-0.10419c7.20001,-0.00104 7.26318,-0.01233 6.12902,-7.09802c-10.97827,-68.58862 -22.00518,-137.16946 -32.90145,-205.77106c-0.57022,-3.58987 -2.01578,-4.67242 -5.51981,-4.62405c-12.33011,0.1702 -24.664,0.06494 -37.99438,0.06427m-232.89028,118.725c-0.00014,-7.49847 -0.23364,-15.00692 0.08719,-22.49163c0.19208,-4.48093 -1.00119,-6.13465 -5.80435,-6.0069c-12.65538,0.33667 -25.32764,-0.01147 -37.98891,0.18582c-3.79493,0.05911 -4.85528,-1.2782 -4.81347,-4.92041c0.16264,-14.16223 0.17222,-28.32876 -0.00409,-42.49066c-0.04665,-3.74683 1.19834,-4.86337 4.89614,-4.82758c16.99533,0.16456 33.99485,-0.0588 50.9889,0.16218c4.45239,0.05789 6.25743,-0.99265 6.05732,-5.81913c-0.3724,-8.98294 -0.3291,-18.00015 -0.01242,-26.98736c0.15627,-4.43537 -1.2856,-5.67569 -5.66548,-5.65149c-30.66018,0.16937 -61.32248,0.19641 -91.98208,-0.01877c-4.94295,-0.0347 -6.12137,1.56503 -6.09694,6.27148c0.17818,34.32621 0.09598,68.65375 0.0959,102.98087c-0.00009,34.32715 0.05758,68.65448 -0.0773,102.98108c-0.01599,4.07037 1.06161,5.54931 5.32449,5.43182c10.32362,-0.28448 20.66667,-0.30218 30.98886,0.00733c4.40173,0.13202 5.68605,-1.16053 5.65102,-5.59912c-0.20124,-25.49378 -0.09842,-50.99 -0.09761,-76.48536c0.00023,-6.9256 0.00204,-6.92926 6.67686,-6.93109c10.998,-0.00311 21.99628,0.04633 32.99394,-0.0152c9.68494,-0.0542 8.72068,1.34778 8.78203,-9.77588m49.98894,41.0915c0.00024,17.65692 0.05701,35.31427 -0.04962,52.97052c-0.02002,3.31677 0.83966,4.72113 4.48541,4.70727c31.48224,-0.12024 62.96539,-0.12982 94.44748,0.00824c3.94449,0.01728 4.74905,-1.55462 4.68588,-5.04431c-0.16888,-9.32513 -0.25665,-18.66156 0.03202,-27.98083c0.13336,-4.3061 -1.48548,-5.3396 -5.50294,-5.2956c-16.48895,0.1806 -32.98104,0.07599 -49.47198,0.07495c-6.93463,-0.00042 -6.94162,-0.00201 -6.94186,-7.16449c-0.00196,-55.30291 -0.05258,-110.60598 0.09289,-165.90854c0.01224,-4.64666 -1.00793,-6.48461 -6.02298,-6.29003c-9.81317,0.38067 -19.66327,0.39834 -29.47467,-0.00461c-5.17947,-0.21271 -6.40198,1.53039 -6.38501,6.5115c0.17319,50.80481 0.10556,101.61045 0.10538,153.41593m12.67471,-378.99985c0.00025,36.82666 0.04923,73.65347 -0.06915,110.47977c-0.01288,4.01269 1.02951,5.68481 5.32321,5.58273c10.32559,-0.24548 20.66495,-0.24466 30.99057,0.00091c4.33469,0.10315 5.72821,-1.25592 5.67737,-5.69305c-0.22534,-19.66049 -0.09689,-39.32506 -0.09686,-58.98814c0.00009,-48.65782 0.00058,-97.31565 -0.00095,-145.97347c-0.00021,-6.97297 -0.00494,-6.97378 -7.17822,-6.97433c-9.49826,-0.00071 -19.00519,0.24031 -28.49121,-0.10024c-4.81421,-0.17283 -6.28382,1.33215 -6.25409,6.1836c0.19287,31.4931 0.09936,62.98794 0.09933,95.48222m67.57028,82.00003c0.00003,9.49457 0.15232,18.99277 -0.07452,28.48193c-0.09122,3.8136 0.87952,5.29947 4.99045,5.19107c10.48675,-0.27648 20.9884,-0.23019 31.47815,-0.01809c3.68698,0.07455 4.86581,-1.0156 4.86029,-4.79065c-0.10089,-69.12708 -0.1008,-138.2544 -0.00653,-207.38153c0.00552,-4.071 -1.57062,-5.13814 -5.33521,-5.07026c-9.82452,0.17714 -19.65439,0.05546 -29.48211,0.06032c-6.41956,0.00317 -6.42853,0.00893 -6.42884,6.62752c-0.00259,58.63323 -0.00174,117.26647 -0.00168,176.89969m107.65128,-183.55206c-11.98181,0.00042 -23.96539,0.11734 -35.94434,-0.06798c-3.71035,-0.0574 -4.96545,1.17245 -4.88876,4.87453c0.19641,9.48152 0.246,18.97483 -0.01797,28.45306c-0.11429,4.10323 1.43084,5.02387 5.24816,5.00925c32.78303,-0.12556 65.56705,-0.13717 98.34992,0.00766c4.27038,0.01886 5.93994,-1.11624 5.78699,-5.61029c-0.29987,-8.80973 -0.31269,-17.64489 0.00213,-26.45356c0.16822,-4.70597 -1.19159,-6.37798 -6.13073,-6.31756c-20.46585,0.25036 -40.9365,0.10492 -62.4054,0.10489m-36.78833,89.97278c-3.22992,-0.39379 -3.89014,1.35356 -3.85944,4.18147c0.10498,9.66131 0.16285,19.32687 -0.02401,28.98573c-0.07267,3.75566 1.37133,4.90128 4.99108,4.8914c32.98542,-0.08985 65.97132,-0.09948 98.95664,0.00994c3.85821,0.01279 5.35821,-1.16605 5.25922,-5.15056c-0.21942,-8.82402 -0.33203,-17.66834 0.03582,-26.4825c0.20948,-5.01924 -1.32995,-6.5814 -6.44714,-6.54794c-32.65106,0.21348 -65.3042,0.10898 -98.91217,0.11246z" fill="#FFFFFF"/>
  <path id="svg_10" d="m446.97492,531.82721c3.29922,-21.99219 6.51727,-43.55441 9.86318,-65.09683c0.24561,-1.58118 1.4152,-3.01883 2.15525,-4.5232c0.83212,1.41779 2.18347,2.7547 2.41882,4.26548c3.81696,24.49984 7.46985,49.0252 11.23023,73.53399c0.43814,2.85553 -0.49317,4.0196 -3.37558,3.9878c-6.65882,-0.07343 -13.3201,-0.09455 -19.978,0.01214c-2.82025,0.04517 -4.03275,-0.91443 -3.4971,-3.8388c0.47925,-2.6167 0.76336,-5.26911 1.1832,-8.34058z" fill="#F8F8F8"/>
  <g id="svg_11">
   <path id="svg_2" d="m624.65007,446.26865c0.06769,5.30386 0.01233,10.13971 0.17926,14.96786c0.10504,3.03781 -1.16919,4.1265 -4.14331,4.09967c-10.49915,-0.09479 -21.00092,-0.12933 -31.49891,0.01474c-3.4049,0.04669 -4.27038,-1.43085 -4.21289,-4.52631c0.10212,-5.49475 0.24103,-11.02502 -0.24157,-16.48687c-1.00427,-11.36392 -7.55909,-16.86206 -18.62512,-16.12952c-8.30097,0.54953 -13.32642,4.70481 -14.92878,12.85779c-0.66894,3.40375 -0.81366,6.95376 -0.81964,10.43793c-0.05762,33.33316 -0.03814,66.66647 -0.02496,99.99972c0.00079,1.99701 0.04669,4.00208 0.22412,5.98981c1.19275,13.3634 9.91534,19.50818 22.92096,16.17047c5.96094,-1.52985 9.92279,-5.47662 10.46252,-11.40887c0.85737,-9.42395 0.95502,-18.93244 1.0318,-28.40796c0.08466,-10.44037 1.36707,-8.91114 -8.93646,-9.04602c-1.49982,-0.01966 -3.22528,0.45501 -4.44141,-0.1344c-1.43609,-0.69605 -3.4284,-2.27356 -3.46167,-3.51502c-0.27691,-10.32589 -0.10028,-20.6629 -0.19378,-30.99536c-0.02637,-2.9111 1.35687,-3.76666 3.97644,-3.76102c16.33319,0.0351 32.66754,-0.05633 48.99786,0.16617c1.30438,0.01779 3.71008,2.09369 3.70441,3.20343c-0.12854,25.15076 0.93591,50.42786 -1.25116,75.41626c-2.50165,28.58142 -20.56555,44.66168 -49.18677,47.38336c-14.19018,1.34937 -28.08783,-0.1546 -40.57373,-7.68334c-17.05975,-10.28669 -24.08905,-26.83961 -24.46875,-45.57319c-0.78332,-38.64599 -0.77698,-77.33059 0.021,-115.97622c0.38287,-18.54132 7.38073,-34.88504 24.18976,-45.21241c21.12872,-12.98141 55.96325,-10.47702 73.79254,5.37717c10.51751,9.35245 14.91137,21.78952 16.75695,35.33923c0.31476,2.31049 0.48517,4.6406 0.75129,7.4329z" fill="#2F2F2F"/>
   <path id="svg_3" d="m398.8925,392.68329c12.83142,0.0007 25.16531,0.10596 37.49542,-0.06424c3.50403,-0.04837 4.94959,1.03418 5.51981,4.62405c10.89627,68.6016 21.92318,137.18244 32.90145,205.77106c1.13416,7.08569 1.07099,7.09698 -6.12902,7.09802c-9.83264,0.00153 -19.67234,-0.21533 -29.49457,0.10419c-4.12793,0.13434 -5.51663,-1.4021 -5.96399,-5.22583c-0.79312,-6.77893 -2.14758,-13.49243 -2.93451,-20.27185c-0.39874,-3.43518 -1.96075,-4.40924 -5.21442,-4.36115c-9.99713,0.14777 -19.99929,0.15326 -29.99621,-0.00103c-3.33316,-0.05146 -4.76862,1.12884 -5.16333,4.46985c-0.82047,6.94494 -2.1807,13.82861 -2.91373,20.78021c-0.38867,3.68579 -1.96002,4.65533 -5.46536,4.57788c-9.49469,-0.21002 -19.00095,-0.23029 -28.4946,0.00158c-4.14249,0.10114 -5.07968,-1.12426 -4.41232,-5.24413c9.02905,-55.74213 17.89325,-111.51096 26.80197,-167.27259c2.12854,-13.32293 4.44278,-26.61972 6.30411,-39.97974c0.57428,-4.12216 2.29184,-5.35812 6.16519,-5.06173c3.47943,0.26626 6.99533,0.05572 10.99411,0.05545m-1.07877,139.57873c-0.37018,2.63666 -0.65429,5.28907 -1.13354,7.90577c-0.53565,2.92437 0.67685,3.88397 3.4971,3.8388c6.6579,-0.10669 13.31918,-0.08557 19.978,-0.01214c2.88241,0.0318 3.81372,-1.13227 3.37558,-3.9878c-3.76038,-24.50879 -7.41327,-49.03415 -11.23023,-73.53399c-0.23535,-1.51078 -1.5867,-2.84769 -2.41885,-4.26548c-0.74002,1.50437 -1.90961,2.94202 -2.15522,4.5232c-3.34591,21.54242 -6.56396,43.10464 -9.91284,65.53164z" fill="#2F2F2F"/>
   <path id="svg_4" d="m165.5032,511.89148c-0.06129,10.6405 0.90297,9.23852 -8.78197,9.29272c-10.99766,0.06153 -21.99594,0.01209 -32.99394,0.0152c-6.67482,0.00183 -6.67663,0.00549 -6.67686,6.93109c-0.00081,25.49536 -0.10363,50.99158 0.09761,76.48536c0.03503,4.43859 -1.24929,5.73114 -5.65102,5.59912c-10.32219,-0.30951 -20.66524,-0.29181 -30.98886,-0.00733c-4.26288,0.11749 -5.34048,-1.36145 -5.32449,-5.43182c0.13488,-34.3266 0.07721,-68.65393 0.0773,-102.98108c0.00008,-34.32712 0.08228,-68.65466 -0.0959,-102.98087c-0.02443,-4.70645 1.15399,-6.30618 6.09694,-6.27148c30.6596,0.21518 61.3219,0.18814 91.98208,0.01877c4.37988,-0.0242 5.82175,1.21612 5.66548,5.65149c-0.31668,8.98721 -0.35998,18.00442 0.01242,26.98736c0.20011,4.82648 -1.60493,5.87702 -6.05732,5.81913c-16.99405,-0.22098 -33.99357,0.00238 -50.9889,-0.16218c-3.6978,-0.03579 -4.94279,1.08075 -4.89614,4.82758c0.17631,14.1619 0.16673,28.32843 0.00409,42.49066c-0.04181,3.64221 1.01854,4.97952 4.81347,4.92041c12.66127,-0.19729 25.33353,0.15085 37.98891,-0.18582c4.80316,-0.12775 5.99643,1.52597 5.80435,6.0069c-0.32083,7.48471 -0.08733,14.99316 -0.08725,22.97479z" fill="#303030"/>
   <path id="svg_5" d="m215.49217,551.99976c0.00021,-51.30542 0.06784,-102.11106 -0.10535,-152.91587c-0.01697,-4.98111 1.20554,-6.72421 6.38501,-6.5115c9.8114,0.40295 19.6615,0.38528 29.47467,0.00461c5.01505,-0.19458 6.03522,1.64337 6.02298,6.29003c-0.14547,55.30256 -0.09485,110.60563 -0.09289,165.90854c0.00024,7.16248 0.00723,7.16407 6.94186,7.16449c16.49094,0.00104 32.98303,0.10565 49.47198,-0.07495c4.01746,-0.044 5.6363,0.9895 5.50294,5.2956c-0.28867,9.31927 -0.2009,18.6557 -0.03202,27.98083c0.06317,3.48969 -0.74139,5.06159 -4.68588,5.04431c-31.48209,-0.13806 -62.96524,-0.12848 -94.44748,-0.00824c-3.64575,0.01386 -4.50543,-1.3905 -4.48541,-4.70727c0.10663,-17.65625 0.04986,-35.3136 0.04959,-53.47058z" fill="#2E2E2E"/>
  </g>
  <g id="svg_12">
   <path id="svg_6" d="m228.14451,172.99997c-0.00009,-31.99428 0.09342,-63.48912 -0.09945,-94.98222c-0.02973,-4.85145 1.43988,-6.35643 6.25409,-6.1836c9.48602,0.34055 18.99295,0.09953 28.49121,0.10024c7.17328,0.00055 7.17801,0.00136 7.17822,6.97433c0.00153,48.65782 0.00104,97.31565 0.00095,145.97347c-0.00003,19.66308 -0.12848,39.32765 0.09686,58.98814c0.05084,4.43713 -1.34268,5.7962 -5.67737,5.69305c-10.32562,-0.24557 -20.66498,-0.24639 -30.99057,-0.00091c-4.2937,0.10208 -5.33609,-1.57004 -5.32321,-5.58273c0.11838,-36.8263 0.0694,-73.65311 0.06927,-110.97977z" fill="#F0464F"/>
   <path id="svg_7" d="m295.71455,255c0.00006,-59.13322 -0.00079,-117.76646 0.0018,-176.39969c0.00031,-6.61859 0.00928,-6.62435 6.42884,-6.62752c9.82772,-0.00486 19.65759,0.11682 29.48211,-0.06032c3.76459,-0.06788 5.34073,0.99926 5.33521,5.07027c-0.09427,69.12712 -0.09436,138.25444 0.00653,207.38152c0.00552,3.77505 -1.17331,4.8652 -4.86029,4.79065c-10.48975,-0.2121 -20.9914,-0.25839 -31.47815,0.01809c-4.11093,0.1084 -5.08167,-1.37747 -4.99045,-5.19107c0.22684,-9.48916 0.07455,-18.98736 0.0744,-28.98193z" fill="#B7B7B7"/>
   <path id="svg_8" d="m403.86595,71.9479c20.9689,0.00007 41.43955,0.14551 61.9054,-0.10485c4.93914,-0.06042 6.29895,1.61159 6.13073,6.31756c-0.31482,8.80867 -0.302,17.64383 -0.00213,26.45356c0.15295,4.49405 -1.51661,5.62915 -5.78699,5.61029c-32.78287,-0.14483 -65.56689,-0.13322 -98.34992,-0.00766c-3.81732,0.01462 -5.36245,-0.90602 -5.24816,-5.00925c0.26397,-9.47823 0.21438,-18.97154 0.01797,-28.45306c-0.07669,-3.70208 1.17841,-4.93193 4.88876,-4.87453c11.97895,0.18532 23.96253,0.0684 36.44434,0.06794z" fill="#49B4DE"/>
   <path id="svg_9" d="m367.05537,161.91907c33.13022,-0.00183 65.78336,0.10267 98.43442,-0.11081c5.11719,-0.03346 6.65662,1.5287 6.44714,6.54794c-0.36785,8.81416 -0.25524,17.65848 -0.03582,26.4825c0.09899,3.98451 -1.40101,5.16335 -5.25922,5.15056c-32.98532,-0.10942 -65.97122,-0.09979 -98.95664,-0.00994c-3.61975,0.00988 -5.06375,-1.13574 -4.99108,-4.8914c0.18686,-9.65886 0.12899,-19.32442 0.02401,-28.98573c-0.0307,-2.82791 0.62952,-4.57526 4.33719,-4.18312z" fill="#B7B7B7"/>
  </g>
 </g>
</svg>