<?xml version="1.0" encoding="UTF-8"?>
<svg xmlns="http://www.w3.org/2000/svg" xmlns:xlink="http://www.w3.org/1999/xlink" width="62px" height="62px" viewBox="0 0 62 62" version="1.1">
<g id="surface1">
<path style=" stroke:none;fill-rule:nonzero;fill:#397367;fill-opacity:1;" d="M 31 3.71875 C 15.933594 3.71875 3.71875 15.933594 3.71875 31 C 3.71875 46.066406 15.933594 58.28125 31 58.28125 C 46.066406 58.28125 58.28125 46.066406 58.28125 31 C 58.28125 15.933594 46.066406 3.71875 31 3.71875 Z M 26.039062 13.640625 L 47.121094 13.640625 L 45.855469 14.730469 C 45.855469 14.78125 45.878906 14.832031 45.878906 14.878906 L 45.878906 21.425781 C 46.625 21.847656 47.121094 22.640625 47.121094 23.558594 L 47.121094 31 C 47.121094 32.363281 46.003906 33.480469 44.640625 33.480469 C 43.277344 33.480469 42.160156 32.363281 42.160156 31 L 42.160156 23.558594 C 42.160156 22.640625 42.65625 21.847656 43.398438 21.425781 L 43.398438 16.828125 L 38.949219 20.648438 C 39.382812 21.515625 39.679688 22.566406 39.679688 23.859375 C 39.679688 27.230469 37.796875 28.902344 35.921875 30.390625 C 35.339844 30.988281 34.65625 31.632812 34.65625 32.636719 C 34.65625 33.628906 35.339844 34.1875 35.835938 34.585938 L 37.433594 35.859375 C 39.40625 37.546875 41.195312 39.097656 41.195312 42.234375 C 41.195312 46.511719 37.113281 50.839844 29.425781 50.839844 C 22.941406 50.839844 19.816406 47.703125 19.816406 44.328125 C 19.816406 42.691406 20.621094 40.375 23.261719 38.773438 C 26.027344 37.050781 29.785156 36.816406 31.804688 36.679688 C 31.175781 35.859375 30.457031 35.003906 30.457031 33.578125 C 30.457031 32.824219 30.691406 32.363281 30.914062 31.804688 C 30.417969 31.855469 29.921875 31.90625 29.472656 31.90625 C 24.761719 31.90625 22.070312 28.335938 22.046875 24.800781 L 13.640625 24.800781 Z M 30.09375 17.65625 C 28.941406 17.65625 27.6875 18.242188 26.96875 19.171875 C 26.214844 20.113281 25.976562 21.339844 25.976562 22.519531 C 25.976562 25.570312 27.738281 30.628906 31.570312 30.628906 C 32.699219 30.628906 33.902344 30.082031 34.621094 29.351562 C 35.636719 28.296875 35.738281 26.847656 35.738281 26.039062 C 35.738281 22.753906 33.8125 17.65625 30.09375 17.65625 Z M 32.289062 37.957031 C 31.890625 37.957031 29.472656 38.042969 27.601562 38.6875 C 26.609375 39.058594 23.757812 40.140625 23.757812 43.375 C 23.757812 46.613281 26.832031 48.929688 31.621094 48.929688 C 35.921875 48.929688 38.191406 46.824219 38.191406 44.007812 C 38.191406 41.6875 36.730469 40.460938 33.332031 38.007812 C 32.972656 37.957031 32.746094 37.957031 32.289062 37.957031 Z M 32.289062 37.957031 "/>
</g>
</svg>
